<?xml version="1.0" encoding="UTF-8" standalone="no"?>
<!DOCTYPE svg PUBLIC "-//W3C//DTD SVG 1.1//EN"
 "http://www.w3.org/Graphics/SVG/1.1/DTD/svg11.dtd">
<!-- Generated by graphviz version 2.43.0 (0)
 -->
<!-- Title: fsm_state_graph Pages: 1 -->
<svg width="387pt" height="507pt"
 viewBox="0.00 0.00 387.00 507.00" xmlns="http://www.w3.org/2000/svg" xmlns:xlink="http://www.w3.org/1999/xlink">
<g id="graph0" class="graph" transform="scale(1 1) rotate(0) translate(4 503)">
<title>fsm_state_graph</title>
<polygon fill="white" stroke="transparent" points="-4,4 -4,-503 383,-503 383,4 -4,4"/>
<g id="clust1" class="cluster">
<title>cluster_transitions</title>
<polygon fill="none" stroke="black" points="8,-8 8,-491 318,-491 318,-8 8,-8"/>
<text text-anchor="middle" x="163" y="-475.8" font-family="Times,serif" font-size="14.00">State Transitions</text>
</g>
<g id="clust2" class="cluster">
<title>cluster_fsm_0</title>
<polygon fill="none" stroke="black" points="16,-124 16,-460 310,-460 310,-124 16,-124"/>
<text text-anchor="middle" x="163" y="-444.8" font-family="Times,serif" font-size="14.00">2pc_generic: { .charlie, .alice, .bob }</text>
</g>
<g id="clust3" class="cluster">
<title>cluster_fsm_1</title>
<polygon fill="none" stroke="black" points="66,-16 66,-91 199,-91 199,-16 66,-16"/>
<text text-anchor="middle" x="132.5" y="-75.8" font-family="Times,serif" font-size="14.00">polysession_exit</text>
</g>
<!-- 0 -->
<g id="node1" class="node">
<title>0</title>
<polygon fill="none" stroke="red" points="297.5,-429 28.5,-429 28.5,-393 297.5,-393 297.5,-429"/>
<text text-anchor="middle" x="163" y="-407.3" font-family="Times,serif" font-size="14.00">[0] Begin .charlie &#45;&gt; { .alice, .bob }</text>
</g>
<!-- 1 -->
<g id="node2" class="node">
<title>1</title>
<polygon fill="none" stroke="green" points="282,-342 24,-342 24,-306 282,-306 282,-342"/>
<text text-anchor="middle" x="153" y="-320.3" font-family="Times,serif" font-size="14.00">[1] AliceResp .alice &#45;&gt; { .charlie }</text>
</g>
<!-- 0&#45;&gt;1 -->
<g id="edge1" class="edge">
<title>0&#45;&gt;1</title>
<path fill="none" stroke="red" d="M160.98,-392.8C159.61,-381.16 157.77,-365.55 156.2,-352.24"/>
<polygon fill="red" stroke="red" points="159.67,-351.7 155.02,-342.18 152.71,-352.52 159.67,-351.7"/>
<text text-anchor="middle" x="178" y="-363.8" font-family="Times,serif" font-size="14.00" fill="red">begin</text>
</g>
<!-- 2 -->
<g id="node3" class="node">
<title>2</title>
<polygon fill="none" stroke="blue" points="269.5,-255 24.5,-255 24.5,-219 269.5,-219 269.5,-255"/>
<text text-anchor="middle" x="147" y="-233.3" font-family="Times,serif" font-size="14.00">[2] BobResp .bob &#45;&gt; { .charlie }</text>
</g>
<!-- 1&#45;&gt;2 -->
<g id="edge2" class="edge">
<title>1&#45;&gt;2</title>
<path fill="none" stroke="green" d="M151.79,-305.8C150.96,-294.16 149.86,-278.55 148.92,-265.24"/>
<polygon fill="green" stroke="green" points="152.41,-264.9 148.21,-255.18 145.43,-265.4 152.41,-264.9"/>
<text text-anchor="middle" x="166" y="-276.8" font-family="Times,serif" font-size="14.00" fill="green">resp</text>
</g>
<!-- 3 -->
<g id="node4" class="node">
<title>3</title>
<polygon fill="none" stroke="brown" points="299,-168 27,-168 27,-132 299,-132 299,-168"/>
<text text-anchor="middle" x="163" y="-146.3" font-family="Times,serif" font-size="14.00">[3] Check .charlie &#45;&gt; { .alice, .bob }</text>
</g>
<!-- 2&#45;&gt;3 -->
<g id="edge3" class="edge">
<title>2&#45;&gt;3</title>
<path fill="none" stroke="blue" d="M150.24,-218.8C152.43,-207.16 155.37,-191.55 157.87,-178.24"/>
<polygon fill="blue" stroke="blue" points="161.36,-178.65 159.77,-168.18 154.48,-177.36 161.36,-178.65"/>
<text text-anchor="middle" x="171" y="-189.8" font-family="Times,serif" font-size="14.00" fill="blue">resp</text>
</g>
<!-- 3&#45;&gt;0 -->
<g id="edge6" class="edge">
<title>3&#45;&gt;0</title>
<path fill="none" stroke="brown" d="M212.37,-168.06C236.32,-178.9 263.25,-195.41 279,-219 294.89,-242.79 304.97,-318.76 291,-342 278.12,-363.42 255.97,-378.45 233.68,-388.83"/>
<polygon fill="brown" stroke="brown" points="232.24,-385.64 224.49,-392.86 235.05,-392.06 232.24,-385.64"/>
<text text-anchor="middle" x="337.5" y="-276.8" font-family="Times,serif" font-size="14.00" fill="brown">failed_retry</text>
</g>
<!-- 4 -->
<g id="node5" class="node">
<title>4</title>
<polygon fill="none" stroke="navy" points="167,-60 97,-60 97,-24 167,-24 167,-60"/>
<text text-anchor="middle" x="132" y="-38.3" font-family="Times,serif" font-size="14.00">[4] Exit</text>
</g>
<!-- 3&#45;&gt;4 -->
<g id="edge4" class="edge">
<title>3&#45;&gt;4</title>
<path fill="none" stroke="brown" d="M115.19,-131.9C107.94,-127.21 101.41,-121.33 97,-114 88.06,-99.14 96.44,-81.67 107.24,-67.78"/>
<polygon fill="brown" stroke="brown" points="109.98,-69.96 113.77,-60.06 104.64,-65.44 109.98,-69.96"/>
<text text-anchor="middle" x="137" y="-102.8" font-family="Times,serif" font-size="14.00" fill="brown">succcessed</text>
</g>
<!-- 3&#45;&gt;4 -->
<g id="edge5" class="edge">
<title>3&#45;&gt;4</title>
<path fill="none" stroke="brown" d="M173.08,-131.7C177.44,-121.99 180.77,-109.71 177,-99 172.96,-87.53 165.48,-76.68 157.76,-67.64"/>
<polygon fill="brown" stroke="brown" points="160.3,-65.24 150.99,-60.19 155.12,-69.94 160.3,-65.24"/>
<text text-anchor="middle" x="198" y="-102.8" font-family="Times,serif" font-size="14.00" fill="brown">failed</text>
</g>
</g>
</svg>
