<?xml version="1.0" encoding="UTF-8" standalone="no"?>
<!DOCTYPE svg PUBLIC "-//W3C//DTD SVG 1.1//EN"
 "http://www.w3.org/Graphics/SVG/1.1/DTD/svg11.dtd">
<!-- Generated by graphviz version 2.43.0 (0)
 -->
<!-- Title: fsm_state_graph Pages: 1 -->
<svg width="2882pt" height="595pt"
 viewBox="0.00 0.00 2882.00 595.00" xmlns="http://www.w3.org/2000/svg" xmlns:xlink="http://www.w3.org/1999/xlink">
<g id="graph0" class="graph" transform="scale(1 1) rotate(0) translate(4 591)">
<title>fsm_state_graph</title>
<polygon fill="white" stroke="transparent" points="-4,4 -4,-591 2878,-591 2878,4 -4,4"/>
<g id="clust1" class="cluster">
<title>cluster_transitions</title>
<polygon fill="none" stroke="black" points="8,-8 8,-561 422,-561 422,-8 8,-8"/>
<text text-anchor="middle" x="215" y="-545.8" font-family="Times,serif" font-size="14.00">State Transitions</text>
</g>
<g id="clust2" class="cluster">
<title>cluster_fsm_0</title>
<polygon fill="none" stroke="black" points="217,-124 217,-286 414,-286 414,-124 217,-124"/>
<text text-anchor="middle" x="315.5" y="-270.8" font-family="Times,serif" font-size="14.00">pingpong</text>
</g>
<g id="clust3" class="cluster">
<title>cluster_fsm_1</title>
<polygon fill="none" stroke="black" points="111,-16 111,-91 218,-91 218,-16 111,-16"/>
<text text-anchor="middle" x="164.5" y="-75.8" font-family="Times,serif" font-size="14.00">polysession_exit</text>
</g>
<g id="clust4" class="cluster">
<title>cluster_fsm_2</title>
<polygon fill="none" stroke="black" points="16,-124 16,-530 209,-530 209,-124 16,-124"/>
<text text-anchor="middle" x="112.5" y="-514.8" font-family="Times,serif" font-size="14.00">sendfile</text>
</g>
<g id="clust5" class="cluster">
<title>cluster_names</title>
<polygon fill="none" stroke="black" points="430,-406 430,-579 2866,-579 2866,-406 430,-406"/>
<text text-anchor="middle" x="1648" y="-563.8" font-family="Times,serif" font-size="14.00">State Names</text>
</g>
<!-- 0 -->
<g id="node1" class="node">
<title>0</title>
<ellipse fill="none" stroke="green" cx="336" cy="-237" rx="27" ry="18"/>
<text text-anchor="middle" x="336" y="-233.3" font-family="Times,serif" font-size="14.00">0</text>
</g>
<!-- 1 -->
<g id="node2" class="node">
<title>1</title>
<ellipse fill="none" stroke="red" cx="327" cy="-150" rx="27" ry="18"/>
<text text-anchor="middle" x="327" y="-146.3" font-family="Times,serif" font-size="14.00">1</text>
</g>
<!-- 0&#45;&gt;1 -->
<g id="edge1" class="edge">
<title>0&#45;&gt;1</title>
<path fill="none" stroke="black" d="M334.18,-218.8C332.95,-207.16 331.29,-191.55 329.88,-178.24"/>
<polygon fill="black" stroke="black" points="333.35,-177.75 328.82,-168.18 326.39,-178.49 333.35,-177.75"/>
<text text-anchor="middle" x="344.5" y="-189.8" font-family="Times,serif" font-size="14.00">ping</text>
</g>
<!-- 2 -->
<g id="node6" class="node">
<title>2</title>
<ellipse fill="none" stroke="red" cx="163" cy="-481" rx="27" ry="18"/>
<text text-anchor="middle" x="163" y="-477.3" font-family="Times,serif" font-size="14.00">2</text>
</g>
<!-- 0&#45;&gt;2 -->
<g id="edge2" class="edge">
<title>0&#45;&gt;2</title>
<path fill="none" stroke="black" d="M324.78,-253.69C295.23,-295.04 215.07,-407.17 179.91,-456.35"/>
<polygon fill="black" stroke="black" points="177.05,-454.32 174.09,-464.49 182.75,-458.39 177.05,-454.32"/>
<text text-anchor="middle" x="284" y="-341.3" font-family="Times,serif" font-size="14.00">next</text>
</g>
<!-- 1&#45;&gt;0 -->
<g id="edge3" class="edge">
<title>1&#45;&gt;0</title>
<path fill="none" stroke="black" d="M344.5,-164.07C350.97,-169.97 357.56,-177.52 361,-186 364.68,-195.08 361.58,-204.77 356.46,-213.18"/>
<polygon fill="black" stroke="black" points="353.55,-211.23 350.6,-221.4 359.25,-215.29 353.55,-211.23"/>
<text text-anchor="middle" x="373" y="-189.8" font-family="Times,serif" font-size="14.00">cast</text>
</g>
<!-- 8 -->
<g id="node3" class="node">
<title>8</title>
<ellipse fill="none" stroke="green" cx="252" cy="-237" rx="27" ry="18"/>
<text text-anchor="middle" x="252" y="-233.3" font-family="Times,serif" font-size="14.00">8</text>
</g>
<!-- 9 -->
<g id="node4" class="node">
<title>9</title>
<ellipse fill="none" stroke="red" cx="254" cy="-150" rx="27" ry="18"/>
<text text-anchor="middle" x="254" y="-146.3" font-family="Times,serif" font-size="14.00">9</text>
</g>
<!-- 8&#45;&gt;9 -->
<g id="edge14" class="edge">
<title>8&#45;&gt;9</title>
<path fill="none" stroke="black" d="M246.72,-218.9C244.38,-209.25 242.46,-196.97 244,-186 244.38,-183.28 244.92,-180.47 245.56,-177.68"/>
<polygon fill="black" stroke="black" points="248.97,-178.45 248.15,-167.89 242.21,-176.66 248.97,-178.45"/>
<text text-anchor="middle" x="256.5" y="-189.8" font-family="Times,serif" font-size="14.00">ping</text>
</g>
<!-- 5 -->
<g id="node5" class="node">
<title>5</title>
<ellipse fill="none" stroke="blue" cx="164" cy="-42" rx="27" ry="18"/>
<text text-anchor="middle" x="164" y="-38.3" font-family="Times,serif" font-size="14.00">5</text>
</g>
<!-- 8&#45;&gt;5 -->
<g id="edge15" class="edge">
<title>8&#45;&gt;5</title>
<path fill="none" stroke="black" d="M274.74,-227.22C282.66,-224.35 291.65,-221.32 300,-219 338.46,-208.31 362.76,-231.93 388,-201 392.22,-195.84 389.27,-192.54 388,-186 382.34,-156.83 383.97,-145.04 363,-124 317.9,-78.75 244.08,-57.79 200.15,-48.88"/>
<polygon fill="black" stroke="black" points="200.67,-45.41 190.19,-46.96 199.35,-52.29 200.67,-45.41"/>
<text text-anchor="middle" x="396" y="-146.3" font-family="Times,serif" font-size="14.00">next</text>
</g>
<!-- 9&#45;&gt;8 -->
<g id="edge16" class="edge">
<title>9&#45;&gt;8</title>
<path fill="none" stroke="black" d="M263.24,-167.07C267.73,-176.8 271.64,-189.52 269,-201 268.26,-204.23 267.18,-207.5 265.91,-210.68"/>
<polygon fill="black" stroke="black" points="262.71,-209.28 261.74,-219.83 269.07,-212.19 262.71,-209.28"/>
<text text-anchor="middle" x="280" y="-189.8" font-family="Times,serif" font-size="14.00">cast</text>
</g>
<!-- 3 -->
<g id="node7" class="node">
<title>3</title>
<ellipse fill="none" stroke="red" cx="131" cy="-345" rx="27" ry="18"/>
<text text-anchor="middle" x="131" y="-341.3" font-family="Times,serif" font-size="14.00">3</text>
</g>
<!-- 2&#45;&gt;3 -->
<g id="edge4" class="edge">
<title>2&#45;&gt;3</title>
<path fill="none" stroke="black" d="M158.95,-463.03C153.51,-440.27 143.81,-399.63 137.39,-372.74"/>
<polygon fill="black" stroke="black" points="140.75,-371.75 135.02,-362.83 133.94,-373.37 140.75,-371.75"/>
<text text-anchor="middle" x="153" y="-384.8" font-family="Times,serif" font-size="14.00">cast</text>
</g>
<!-- 3&#45;&gt;8 -->
<g id="edge8" class="edge">
<title>3&#45;&gt;8</title>
<path fill="none" stroke="black" d="M150.96,-332.62C161.9,-326.12 175.52,-317.57 187,-309 199.36,-299.77 202.32,-297.14 213,-286 220.28,-278.41 227.7,-269.6 234.09,-261.61"/>
<polygon fill="black" stroke="black" points="236.9,-263.7 240.32,-253.68 231.39,-259.38 236.9,-263.7"/>
<text text-anchor="middle" x="232.5" y="-297.8" font-family="Times,serif" font-size="14.00">final_zero</text>
</g>
<!-- 3&#45;&gt;3 -->
<g id="edge6" class="edge">
<title>3&#45;&gt;3</title>
<path fill="none" stroke="black" d="M155.53,-352.75C166.51,-353.49 176,-350.91 176,-345 176,-341.03 171.72,-338.56 165.57,-337.59"/>
<polygon fill="black" stroke="black" points="165.65,-334.09 155.53,-337.25 165.41,-341.09 165.65,-334.09"/>
<text text-anchor="middle" x="188.5" y="-341.3" font-family="Times,serif" font-size="14.00">send</text>
</g>
<!-- 4 -->
<g id="node8" class="node">
<title>4</title>
<ellipse fill="none" stroke="green" cx="85" cy="-237" rx="27" ry="18"/>
<text text-anchor="middle" x="85" y="-233.3" font-family="Times,serif" font-size="14.00">4</text>
</g>
<!-- 3&#45;&gt;4 -->
<g id="edge5" class="edge">
<title>3&#45;&gt;4</title>
<path fill="none" stroke="black" d="M104.52,-341.32C83.94,-337.69 56.66,-329.14 43,-309 31.7,-292.35 45.46,-272.59 60.17,-258.15"/>
<polygon fill="black" stroke="black" points="62.82,-260.46 67.82,-251.12 58.09,-255.31 62.82,-260.46"/>
<text text-anchor="middle" x="59" y="-297.8" font-family="Times,serif" font-size="14.00">check</text>
</g>
<!-- 6 -->
<g id="node9" class="node">
<title>6</title>
<ellipse fill="none" stroke="red" cx="165" cy="-237" rx="27" ry="18"/>
<text text-anchor="middle" x="165" y="-233.3" font-family="Times,serif" font-size="14.00">6</text>
</g>
<!-- 3&#45;&gt;6 -->
<g id="edge7" class="edge">
<title>3&#45;&gt;6</title>
<path fill="none" stroke="black" d="M143.06,-328.76C147.14,-322.88 151.34,-315.92 154,-309 159.34,-295.13 162.09,-278.79 163.51,-265.29"/>
<polygon fill="black" stroke="black" points="167.01,-265.43 164.38,-255.16 160.04,-264.83 167.01,-265.43"/>
<text text-anchor="middle" x="170.5" y="-297.8" font-family="Times,serif" font-size="14.00">final</text>
</g>
<!-- 4&#45;&gt;5 -->
<g id="edge10" class="edge">
<title>4&#45;&gt;5</title>
<path fill="none" stroke="black" d="M83.17,-218.92C81.45,-196.26 80.82,-155.49 94,-124 103.99,-100.13 123.82,-78.27 139.83,-63.29"/>
<polygon fill="black" stroke="black" points="142.25,-65.81 147.32,-56.51 137.56,-60.62 142.25,-65.81"/>
<text text-anchor="middle" x="111" y="-146.3" font-family="Times,serif" font-size="14.00">Failed</text>
</g>
<!-- 4&#45;&gt;3 -->
<g id="edge9" class="edge">
<title>4&#45;&gt;3</title>
<path fill="none" stroke="black" d="M84.02,-255C83.86,-270 85.4,-292.05 94,-309 96.82,-314.56 100.89,-319.71 105.31,-324.25"/>
<polygon fill="black" stroke="black" points="103.2,-327.07 112.92,-331.3 107.96,-321.93 103.2,-327.07"/>
<text text-anchor="middle" x="122" y="-297.8" font-family="Times,serif" font-size="14.00">Successed</text>
</g>
<!-- 7 -->
<g id="node10" class="node">
<title>7</title>
<ellipse fill="none" stroke="green" cx="164" cy="-150" rx="27" ry="18"/>
<text text-anchor="middle" x="164" y="-146.3" font-family="Times,serif" font-size="14.00">7</text>
</g>
<!-- 6&#45;&gt;7 -->
<g id="edge11" class="edge">
<title>6&#45;&gt;7</title>
<path fill="none" stroke="black" d="M143.87,-225.3C134.76,-219.47 125.04,-211.31 120,-201 113.85,-188.42 123.36,-176.56 135.09,-167.55"/>
<polygon fill="black" stroke="black" points="137.17,-170.36 143.4,-161.79 133.18,-164.61 137.17,-170.36"/>
<text text-anchor="middle" x="131" y="-189.8" font-family="Times,serif" font-size="14.00">cast</text>
</g>
<!-- 7&#45;&gt;8 -->
<g id="edge12" class="edge">
<title>7&#45;&gt;8</title>
<path fill="none" stroke="black" d="M167.16,-167.94C169.87,-178.48 174.68,-191.75 183,-201 185.96,-204.29 204.11,-213.45 221.06,-221.57"/>
<polygon fill="black" stroke="black" points="219.71,-224.8 230.24,-225.93 222.71,-218.48 219.71,-224.8"/>
<text text-anchor="middle" x="211" y="-189.8" font-family="Times,serif" font-size="14.00">Successed</text>
</g>
<!-- 7&#45;&gt;5 -->
<g id="edge13" class="edge">
<title>7&#45;&gt;5</title>
<path fill="none" stroke="black" d="M164,-131.97C164,-115.38 164,-89.88 164,-70.43"/>
<polygon fill="black" stroke="black" points="167.5,-70.34 164,-60.34 160.5,-70.34 167.5,-70.34"/>
<text text-anchor="middle" x="181" y="-102.8" font-family="Times,serif" font-size="14.00">Failed</text>
</g>
<!-- table_0 -->
<g id="node11" class="node">
<title>table_0</title>
<polygon fill="none" stroke="black" points="1822,-512 1822,-533 2850,-533 2850,-512 1822,-512"/>
<text text-anchor="start" x="2310" y="-518.8" font-family="Times,serif" font-size="14.00">pingpong</text>
<polygon fill="none" stroke="black" points="1822,-491 1822,-512 2850,-512 2850,-491 1822,-491"/>
<text text-anchor="start" x="1825" y="-497.8" font-family="Times,serif" font-size="14.00"> 0 &#45;&#45; pingpong.MkPingPong(.client,.{ .client = core.ClientContext, .server = core.ServerContext },.pingpong,.pingpong).Start({2}) </text>
<polygon fill="none" stroke="black" points="1822,-470 1822,-491 2850,-491 2850,-470 1822,-470"/>
<text text-anchor="start" x="1825" y="-476.8" font-family="Times,serif" font-size="14.00"> 1 &#45;&#45; root.Cast(&quot;pingpong&quot;[0..8],&quot;pong&quot;[0..4],.server,i32,pingpong.MkPingPong(.client,.{ .client = core.ClientContext, .server = core.ServerContext },.pingpong,.pingpong).PongFn,{0}) </text>
<polygon fill="none" stroke="black" points="1822,-449 1822,-470 2850,-470 2850,-449 1822,-449"/>
<text text-anchor="start" x="1825" y="-455.8" font-family="Times,serif" font-size="14.00"> 8 &#45;&#45; pingpong.MkPingPong(.client,.{ .client = core.ClientContext, .server = core.ServerContext },.pingpong,.pingpong).Start({5}) </text>
<polygon fill="none" stroke="black" points="1822,-428 1822,-449 2850,-449 2850,-428 1822,-428"/>
<text text-anchor="start" x="1825" y="-434.8" font-family="Times,serif" font-size="14.00"> 9 &#45;&#45; root.Cast(&quot;pingpong&quot;[0..8],&quot;pong&quot;[0..4],.server,i32,pingpong.MkPingPong(.client,.{ .client = core.ClientContext, .server = core.ServerContext },.pingpong,.pingpong).PongFn,{8}) </text>
</g>
<!-- table_1 -->
<g id="node12" class="node">
<title>table_1</title>
<polygon fill="none" stroke="black" points="1691,-481 1691,-502 1788,-502 1788,-481 1691,-481"/>
<text text-anchor="start" x="1694" y="-487.8" font-family="Times,serif" font-size="14.00">polysession_exit</text>
<polygon fill="none" stroke="black" points="1691,-460 1691,-481 1788,-481 1788,-460 1691,-460"/>
<text text-anchor="start" x="1694" y="-466.8" font-family="Times,serif" font-size="14.00"> 5 &#45;&#45; root.Exit </text>
</g>
<!-- table_2 -->
<g id="node13" class="node">
<title>table_2</title>
<polygon fill="none" stroke="black" points="446,-523 446,-544 1657,-544 1657,-523 446,-523"/>
<text text-anchor="start" x="1030" y="-529.8" font-family="Times,serif" font-size="14.00">sendfile</text>
<polygon fill="none" stroke="black" points="446,-502 446,-523 1657,-523 1657,-502 446,-502"/>
<text text-anchor="start" x="449" y="-508.8" font-family="Times,serif" font-size="14.00"> 2 &#45;&#45; root.Cast(&quot;sendfile&quot;[0..8],&quot;init send file&quot;[0..14],.server,u64,sendfile.MkSendFile(.server,.{ .client = core.ClientContext, .server = core.ServerContext },20971520,.send_context,.recv_context).Start.InitSendFile,{3}) </text>
<polygon fill="none" stroke="black" points="446,-481 446,-502 1657,-502 1657,-481 446,-481"/>
<text text-anchor="start" x="449" y="-487.8" font-family="Times,serif" font-size="14.00"> 3 &#45;&#45; sendfile.MkSendFile(.server,.{ .client = core.ClientContext, .server = core.ServerContext },20971520,.send_context,.recv_context).Send({8},{5}) </text>
<polygon fill="none" stroke="black" points="446,-460 446,-481 1657,-481 1657,-460 446,-460"/>
<text text-anchor="start" x="449" y="-466.8" font-family="Times,serif" font-size="14.00"> 4 &#45;&#45; sendfile.MkSendFile(.server,.{ .client = core.ClientContext, .server = core.ServerContext },20971520,.send_context,.recv_context).CheckHash({3},{5}) </text>
<polygon fill="none" stroke="black" points="446,-439 446,-460 1657,-460 1657,-439 446,-439"/>
<text text-anchor="start" x="449" y="-445.8" font-family="Times,serif" font-size="14.00"> 6 &#45;&#45; root.Cast(&quot;sendfile&quot;[0..8],&quot;init check hash&quot;[0..15],.server,u64,{3}.InitCheckHash,{7}) </text>
<polygon fill="none" stroke="black" points="446,-418 446,-439 1657,-439 1657,-418 446,-418"/>
<text text-anchor="start" x="449" y="-424.8" font-family="Times,serif" font-size="14.00"> 7 &#45;&#45; sendfile.MkSendFile(.server,.{ .client = core.ClientContext, .server = core.ServerContext },20971520,.send_context,.recv_context).CheckHash({8},{5}) </text>
</g>
</g>
</svg>
