<?xml version="1.0" encoding="UTF-8" standalone="no"?>
<!DOCTYPE svg PUBLIC "-//W3C//DTD SVG 1.1//EN"
 "http://www.w3.org/Graphics/SVG/1.1/DTD/svg11.dtd">
<!-- Generated by graphviz version 2.43.0 (0)
 -->
<!-- Title: fsm_state_graph Pages: 1 -->
<svg width="855pt" height="528pt"
 viewBox="0.00 0.00 855.00 528.00" xmlns="http://www.w3.org/2000/svg" xmlns:xlink="http://www.w3.org/1999/xlink">
<g id="graph0" class="graph" transform="scale(1 1) rotate(0) translate(4 524)">
<title>fsm_state_graph</title>
<polygon fill="white" stroke="transparent" points="-4,4 -4,-524 851,-524 851,4 -4,4"/>
<g id="clust1" class="cluster">
<title>cluster_transitions</title>
<polygon fill="none" stroke="black" points="8,-8 8,-512 839,-512 839,-8 8,-8"/>
<text text-anchor="middle" x="423.5" y="-496.8" font-family="Times,serif" font-size="14.00">State Transitions</text>
</g>
<g id="clust2" class="cluster">
<title>cluster_fsm_0</title>
<polygon fill="none" stroke="black" points="473,-16 473,-199 831,-199 831,-16 473,-16"/>
<text text-anchor="middle" x="652" y="-183.8" font-family="Times,serif" font-size="14.00">pingpong: { .alice, .bob }</text>
</g>
<g id="clust3" class="cluster">
<title>cluster_fsm_1</title>
<polygon fill="none" stroke="black" points="255,-16 255,-91 362,-91 362,-16 255,-16"/>
<text text-anchor="middle" x="308.5" y="-75.8" font-family="Times,serif" font-size="14.00">polysession_exit</text>
</g>
<g id="clust4" class="cluster">
<title>cluster_fsm_2</title>
<polygon fill="none" stroke="black" points="16,-124 16,-481 465,-481 465,-124 16,-124"/>
<text text-anchor="middle" x="240.5" y="-465.8" font-family="Times,serif" font-size="14.00">sendfile: { .alice, .bob }</text>
</g>
<!-- 0 -->
<g id="node1" class="node">
<title>0</title>
<polygon fill="none" stroke="red" points="816.5,-168 657.5,-168 657.5,-132 816.5,-132 816.5,-168"/>
<text text-anchor="middle" x="737" y="-146.3" font-family="Times,serif" font-size="14.00">[0] Ping .alice &#45;&gt; { .bob }</text>
</g>
<!-- 1 -->
<g id="node2" class="node">
<title>1</title>
<polygon fill="none" stroke="green" points="823,-60 661,-60 661,-24 823,-24 823,-60"/>
<text text-anchor="middle" x="742" y="-38.3" font-family="Times,serif" font-size="14.00">[1] Pong .bob &#45;&gt; { .alice }</text>
</g>
<!-- 0&#45;&gt;1 -->
<g id="edge1" class="edge">
<title>0&#45;&gt;1</title>
<path fill="none" stroke="red" d="M724.11,-131.69C720.8,-126.3 717.7,-120.15 716,-114 714.22,-107.58 714.56,-105.51 716,-99 718.23,-88.9 722.47,-78.46 726.89,-69.37"/>
<polygon fill="red" stroke="red" points="730.02,-70.95 731.49,-60.46 723.8,-67.74 730.02,-70.95"/>
<text text-anchor="middle" x="728.5" y="-102.8" font-family="Times,serif" font-size="14.00" fill="red">ping</text>
</g>
<!-- 2 -->
<g id="node6" class="node">
<title>2</title>
<polygon fill="none" stroke="blue" points="369,-450 163,-450 163,-414 369,-414 369,-450"/>
<text text-anchor="middle" x="266" y="-428.3" font-family="Times,serif" font-size="14.00">[2] SendFileSize .alice &#45;&gt; { .bob }</text>
</g>
<!-- 0&#45;&gt;2 -->
<g id="edge2" class="edge">
<title>0&#45;&gt;2</title>
<path fill="none" stroke="red" d="M709.61,-168.12C651.02,-204.63 509,-292.56 388,-363 360.87,-378.79 329.98,-396 306.07,-409.16"/>
<polygon fill="red" stroke="red" points="304.35,-406.11 297.27,-413.99 307.72,-412.24 304.35,-406.11"/>
<text text-anchor="middle" x="515" y="-297.8" font-family="Times,serif" font-size="14.00" fill="red">next</text>
</g>
<!-- 1&#45;&gt;0 -->
<g id="edge3" class="edge">
<title>1&#45;&gt;0</title>
<path fill="none" stroke="green" d="M742.24,-60.24C742.32,-74.62 742.17,-95.67 741,-114 740.84,-116.56 740.62,-119.23 740.37,-121.89"/>
<polygon fill="green" stroke="green" points="736.88,-121.63 739.29,-131.94 743.84,-122.37 736.88,-121.63"/>
<text text-anchor="middle" x="752" y="-102.8" font-family="Times,serif" font-size="14.00" fill="green">cast</text>
</g>
<!-- 8 -->
<g id="node3" class="node">
<title>8</title>
<polygon fill="none" stroke="darkred" points="639.5,-168 480.5,-168 480.5,-132 639.5,-132 639.5,-168"/>
<text text-anchor="middle" x="560" y="-146.3" font-family="Times,serif" font-size="14.00">[8] Ping .alice &#45;&gt; { .bob }</text>
</g>
<!-- 9 -->
<g id="node4" class="node">
<title>9</title>
<polygon fill="none" stroke="darkgreen" points="643,-60 481,-60 481,-24 643,-24 643,-60"/>
<text text-anchor="middle" x="562" y="-38.3" font-family="Times,serif" font-size="14.00">[9] Pong .bob &#45;&gt; { .alice }</text>
</g>
<!-- 8&#45;&gt;9 -->
<g id="edge13" class="edge">
<title>8&#45;&gt;9</title>
<path fill="none" stroke="darkred" d="M546.5,-131.77C543.04,-126.38 539.79,-120.21 538,-114 533.68,-99.01 538.67,-82.49 545.2,-69.15"/>
<polygon fill="darkred" stroke="darkred" points="548.43,-70.54 550.11,-60.08 542.27,-67.21 548.43,-70.54"/>
<text text-anchor="middle" x="550.5" y="-102.8" font-family="Times,serif" font-size="14.00" fill="darkred">ping</text>
</g>
<!-- 5 -->
<g id="node5" class="node">
<title>5</title>
<polygon fill="none" stroke="teal" points="337.5,-60 278.5,-60 278.5,-24 337.5,-24 337.5,-60"/>
<text text-anchor="middle" x="308" y="-38.3" font-family="Times,serif" font-size="14.00">[5] Exit</text>
</g>
<!-- 8&#45;&gt;5 -->
<g id="edge14" class="edge">
<title>8&#45;&gt;5</title>
<path fill="none" stroke="darkred" d="M519.51,-131.97C472.1,-112.03 394.11,-79.22 347.24,-59.51"/>
<polygon fill="darkred" stroke="darkred" points="348.31,-56.16 337.74,-55.51 345.6,-62.61 348.31,-56.16"/>
<text text-anchor="middle" x="483" y="-102.8" font-family="Times,serif" font-size="14.00" fill="darkred">next</text>
</g>
<!-- 9&#45;&gt;8 -->
<g id="edge15" class="edge">
<title>9&#45;&gt;8</title>
<path fill="none" stroke="darkgreen" d="M562.79,-60.22C563.32,-74.61 563.79,-95.65 563,-114 562.89,-116.56 562.74,-119.22 562.55,-121.88"/>
<polygon fill="darkgreen" stroke="darkgreen" points="559.06,-121.68 561.76,-131.93 566.04,-122.24 559.06,-121.68"/>
<text text-anchor="middle" x="574" y="-102.8" font-family="Times,serif" font-size="14.00" fill="darkgreen">cast</text>
</g>
<!-- 3 -->
<g id="node7" class="node">
<title>3</title>
<polygon fill="none" stroke="brown" points="335.5,-363 174.5,-363 174.5,-327 335.5,-327 335.5,-363"/>
<text text-anchor="middle" x="255" y="-341.3" font-family="Times,serif" font-size="14.00">[3] Send .alice &#45;&gt; { .bob }</text>
</g>
<!-- 2&#45;&gt;3 -->
<g id="edge4" class="edge">
<title>2&#45;&gt;3</title>
<path fill="none" stroke="blue" d="M263.77,-413.8C262.27,-402.16 260.25,-386.55 258.52,-373.24"/>
<polygon fill="blue" stroke="blue" points="261.98,-372.64 257.22,-363.18 255.04,-373.54 261.98,-372.64"/>
<text text-anchor="middle" x="272" y="-384.8" font-family="Times,serif" font-size="14.00" fill="blue">cast</text>
</g>
<!-- 3&#45;&gt;3 -->
<g id="edge6" class="edge">
<title>3&#45;&gt;3</title>
<path fill="none" stroke="brown" d="M335.77,-351.94C346.43,-350.76 353.5,-348.45 353.5,-345 353.5,-342.79 350.6,-341.05 345.71,-339.77"/>
<polygon fill="brown" stroke="brown" points="346.22,-336.31 335.77,-338.06 345.03,-343.2 346.22,-336.31"/>
<text text-anchor="middle" x="366" y="-341.3" font-family="Times,serif" font-size="14.00" fill="brown">send</text>
</g>
<!-- 4 -->
<g id="node8" class="node">
<title>4</title>
<polygon fill="none" stroke="navy" points="221.5,-276 24.5,-276 24.5,-240 221.5,-240 221.5,-276"/>
<text text-anchor="middle" x="123" y="-254.3" font-family="Times,serif" font-size="14.00">[4] CheckHash .bob &#45;&gt; { .alice }</text>
</g>
<!-- 3&#45;&gt;4 -->
<g id="edge5" class="edge">
<title>3&#45;&gt;4</title>
<path fill="none" stroke="brown" d="M189.03,-326.94C177.68,-322.24 166.5,-316.35 157,-309 148.74,-302.61 141.77,-293.64 136.33,-285.06"/>
<polygon fill="brown" stroke="brown" points="139.31,-283.23 131.22,-276.38 133.28,-286.77 139.31,-283.23"/>
<text text-anchor="middle" x="173" y="-297.8" font-family="Times,serif" font-size="14.00" fill="brown">check</text>
</g>
<!-- 6 -->
<g id="node9" class="node">
<title>6</title>
<polygon fill="none" stroke="cyan" points="456.5,-276 239.5,-276 239.5,-240 456.5,-240 456.5,-276"/>
<text text-anchor="middle" x="348" y="-254.3" font-family="Times,serif" font-size="14.00">[6] SendFinalHash .alice &#45;&gt; { .bob }</text>
</g>
<!-- 3&#45;&gt;6 -->
<g id="edge7" class="edge">
<title>3&#45;&gt;6</title>
<path fill="none" stroke="brown" d="M273.82,-326.8C287.56,-314.24 306.37,-297.05 321.61,-283.12"/>
<polygon fill="brown" stroke="brown" points="324.19,-285.51 329.21,-276.18 319.47,-280.34 324.19,-285.51"/>
<text text-anchor="middle" x="319.5" y="-297.8" font-family="Times,serif" font-size="14.00" fill="brown">final</text>
</g>
<!-- 4&#45;&gt;5 -->
<g id="edge9" class="edge">
<title>4&#45;&gt;5</title>
<path fill="none" stroke="navy" d="M124.77,-239.58C128.35,-212.21 138.71,-158.67 167,-124 193.69,-91.29 237.31,-69.16 268.97,-56.41"/>
<polygon fill="navy" stroke="navy" points="270.33,-59.63 278.38,-52.75 267.79,-53.11 270.33,-59.63"/>
<text text-anchor="middle" x="184" y="-146.3" font-family="Times,serif" font-size="14.00" fill="navy">Failed</text>
</g>
<!-- 4&#45;&gt;3 -->
<g id="edge8" class="edge">
<title>4&#45;&gt;3</title>
<path fill="none" stroke="navy" d="M157.85,-276.14C168.08,-281.53 179.16,-287.72 189,-294 201.68,-302.09 215.01,-311.92 226.36,-320.71"/>
<polygon fill="navy" stroke="navy" points="224.2,-323.47 234.22,-326.89 228.52,-317.96 224.2,-323.47"/>
<text text-anchor="middle" x="237" y="-297.8" font-family="Times,serif" font-size="14.00" fill="navy">Successed</text>
</g>
<!-- 7 -->
<g id="node10" class="node">
<title>7</title>
<polygon fill="none" stroke="magenta" points="406.5,-168 209.5,-168 209.5,-132 406.5,-132 406.5,-168"/>
<text text-anchor="middle" x="308" y="-146.3" font-family="Times,serif" font-size="14.00">[7] CheckHash .bob &#45;&gt; { .alice }</text>
</g>
<!-- 6&#45;&gt;7 -->
<g id="edge10" class="edge">
<title>6&#45;&gt;7</title>
<path fill="none" stroke="cyan" d="M341.57,-239.97C335.25,-223.22 325.51,-197.41 318.15,-177.89"/>
<polygon fill="cyan" stroke="cyan" points="321.35,-176.46 314.54,-168.34 314.8,-178.93 321.35,-176.46"/>
<text text-anchor="middle" x="344" y="-210.8" font-family="Times,serif" font-size="14.00" fill="cyan">cast</text>
</g>
<!-- 7&#45;&gt;8 -->
<g id="edge11" class="edge">
<title>7&#45;&gt;8</title>
<path fill="none" stroke="magenta" d="M406.51,-150C427.51,-150 449.58,-150 470.23,-150"/>
<polygon fill="magenta" stroke="magenta" points="470.24,-153.5 480.24,-150 470.24,-146.5 470.24,-153.5"/>
<text text-anchor="middle" x="443.5" y="-156.8" font-family="Times,serif" font-size="14.00" fill="magenta">Successed</text>
</g>
<!-- 7&#45;&gt;5 -->
<g id="edge12" class="edge">
<title>7&#45;&gt;5</title>
<path fill="none" stroke="magenta" d="M308,-131.97C308,-115.38 308,-89.88 308,-70.43"/>
<polygon fill="magenta" stroke="magenta" points="311.5,-70.34 308,-60.34 304.5,-70.34 311.5,-70.34"/>
<text text-anchor="middle" x="325" y="-102.8" font-family="Times,serif" font-size="14.00" fill="magenta">Failed</text>
</g>
</g>
</svg>
