<?xml version="1.0" encoding="UTF-8" standalone="no"?>
<!DOCTYPE svg PUBLIC "-//W3C//DTD SVG 1.1//EN"
 "http://www.w3.org/Graphics/SVG/1.1/DTD/svg11.dtd">
<!-- Generated by graphviz version 2.43.0 (0)
 -->
<!-- Title: fsm_state_graph Pages: 1 -->
<svg width="399pt" height="246pt"
 viewBox="0.00 0.00 399.00 246.00" xmlns="http://www.w3.org/2000/svg" xmlns:xlink="http://www.w3.org/1999/xlink">
<g id="graph0" class="graph" transform="scale(1 1) rotate(0) translate(4 242)">
<title>fsm_state_graph</title>
<polygon fill="white" stroke="transparent" points="-4,4 -4,-242 395,-242 395,4 -4,4"/>
<g id="clust1" class="cluster">
<title>cluster_transitions</title>
<polygon fill="none" stroke="black" points="8,-8 8,-230 383,-230 383,-8 8,-8"/>
<text text-anchor="middle" x="195.5" y="-214.8" font-family="Times,serif" font-size="14.00">State Transitions</text>
</g>
<g id="clust2" class="cluster">
<title>cluster_fsm_0</title>
<polygon fill="none" stroke="black" points="16,-16 16,-199 234,-199 234,-16 16,-16"/>
<text text-anchor="middle" x="125" y="-183.8" font-family="Times,serif" font-size="14.00">pingpong: { .alice, .bob }</text>
</g>
<g id="clust3" class="cluster">
<title>cluster_fsm_1</title>
<polygon fill="none" stroke="black" points="242,-16 242,-91 375,-91 375,-16 242,-16"/>
<text text-anchor="middle" x="308.5" y="-75.8" font-family="Times,serif" font-size="14.00">polysession_exit</text>
</g>
<!-- 0 -->
<g id="node1" class="node">
<title>0</title>
<polygon fill="none" stroke="red" points="226,-168 28,-168 28,-132 226,-132 226,-168"/>
<text text-anchor="middle" x="127" y="-146.3" font-family="Times,serif" font-size="14.00">[0] Ping .alice &#45;&gt; { .bob }</text>
</g>
<!-- 1 -->
<g id="node2" class="node">
<title>1</title>
<polygon fill="none" stroke="green" points="225.5,-60 24.5,-60 24.5,-24 225.5,-24 225.5,-60"/>
<text text-anchor="middle" x="125" y="-38.3" font-family="Times,serif" font-size="14.00">[1] Pong .bob &#45;&gt; { .alice }</text>
</g>
<!-- 0&#45;&gt;1 -->
<g id="edge1" class="edge">
<title>0&#45;&gt;1</title>
<path fill="none" stroke="red" d="M109.58,-131.91C105.28,-126.62 101.27,-120.46 99,-114 93.74,-99 99.27,-82.31 106.56,-68.88"/>
<polygon fill="red" stroke="red" points="109.64,-70.55 111.78,-60.17 103.64,-66.95 109.64,-70.55"/>
<text text-anchor="middle" x="115" y="-102.8" font-family="Times,serif" font-size="14.00" fill="red">ping</text>
</g>
<!-- 2 -->
<g id="node3" class="node">
<title>2</title>
<polygon fill="none" stroke="blue" points="320,-60 250,-60 250,-24 320,-24 320,-60"/>
<text text-anchor="middle" x="285" y="-38.3" font-family="Times,serif" font-size="14.00">[2] Exit</text>
</g>
<!-- 0&#45;&gt;2 -->
<g id="edge2" class="edge">
<title>0&#45;&gt;2</title>
<path fill="none" stroke="red" d="M166.78,-131.96C188.77,-121.64 216,-107.33 238,-91 246.99,-84.33 255.85,-75.91 263.41,-67.99"/>
<polygon fill="red" stroke="red" points="266.27,-70.04 270.49,-60.33 261.13,-65.29 266.27,-70.04"/>
<text text-anchor="middle" x="240" y="-102.8" font-family="Times,serif" font-size="14.00" fill="red">next</text>
</g>
<!-- 1&#45;&gt;0 -->
<g id="edge3" class="edge">
<title>1&#45;&gt;0</title>
<path fill="none" stroke="green" d="M127.82,-60.2C129.84,-74.57 132.05,-95.6 131,-114 130.85,-116.56 130.65,-119.23 130.41,-121.89"/>
<polygon fill="green" stroke="green" points="126.91,-121.63 129.34,-131.94 133.88,-122.37 126.91,-121.63"/>
<text text-anchor="middle" x="147" y="-102.8" font-family="Times,serif" font-size="14.00" fill="green">cast</text>
</g>
</g>
</svg>
