<?xml version="1.0" encoding="UTF-8" standalone="no"?>
<!DOCTYPE svg PUBLIC "-//W3C//DTD SVG 1.1//EN"
 "http://www.w3.org/Graphics/SVG/1.1/DTD/svg11.dtd">
<!-- Generated by graphviz version 2.43.0 (0)
 -->
<!-- Title: fsm_state_graph Pages: 1 -->
<svg width="1101pt" height="528pt"
 viewBox="0.00 0.00 1101.00 528.00" xmlns="http://www.w3.org/2000/svg" xmlns:xlink="http://www.w3.org/1999/xlink">
<g id="graph0" class="graph" transform="scale(1 1) rotate(0) translate(4 524)">
<title>fsm_state_graph</title>
<polygon fill="white" stroke="transparent" points="-4,4 -4,-524 1097,-524 1097,4 -4,4"/>
<g id="clust1" class="cluster">
<title>cluster_transitions</title>
<polygon fill="none" stroke="black" points="8,-8 8,-512 1085,-512 1085,-8 8,-8"/>
<text text-anchor="middle" x="546.5" y="-496.8" font-family="Times,serif" font-size="14.00">State Transitions</text>
</g>
<g id="clust2" class="cluster">
<title>cluster_fsm_0</title>
<polygon fill="none" stroke="black" points="580,-124 580,-286 1017,-286 1017,-124 580,-124"/>
<text text-anchor="middle" x="798.5" y="-270.8" font-family="Times,serif" font-size="14.00">pingpong: { .alice, .bob }</text>
</g>
<g id="clust3" class="cluster">
<title>cluster_fsm_1</title>
<polygon fill="none" stroke="black" points="368,-16 368,-91 501,-91 501,-16 368,-16"/>
<text text-anchor="middle" x="434.5" y="-75.8" font-family="Times,serif" font-size="14.00">polysession_exit</text>
</g>
<g id="clust4" class="cluster">
<title>cluster_fsm_2</title>
<polygon fill="none" stroke="black" points="16,-124 16,-481 572,-481 572,-124 16,-124"/>
<text text-anchor="middle" x="294" y="-465.8" font-family="Times,serif" font-size="14.00">sendfile: { .alice, .bob }</text>
</g>
<!-- 0 -->
<g id="node1" class="node">
<title>0</title>
<polygon fill="none" stroke="red" points="1002,-255 804,-255 804,-219 1002,-219 1002,-255"/>
<text text-anchor="middle" x="903" y="-233.3" font-family="Times,serif" font-size="14.00">[0] Ping .alice &#45;&gt; { .bob }</text>
</g>
<!-- 1 -->
<g id="node2" class="node">
<title>1</title>
<polygon fill="none" stroke="green" points="1008.5,-168 807.5,-168 807.5,-132 1008.5,-132 1008.5,-168"/>
<text text-anchor="middle" x="908" y="-146.3" font-family="Times,serif" font-size="14.00">[1] Pong .bob &#45;&gt; { .alice }</text>
</g>
<!-- 0&#45;&gt;1 -->
<g id="edge1" class="edge">
<title>0&#45;&gt;1</title>
<path fill="none" stroke="red" d="M887.21,-218.79C880.46,-209.31 874.95,-197.23 879,-186 880.19,-182.71 881.83,-179.51 883.74,-176.46"/>
<polygon fill="red" stroke="red" points="886.59,-178.5 889.66,-168.36 880.94,-174.37 886.59,-178.5"/>
<text text-anchor="middle" x="895" y="-189.8" font-family="Times,serif" font-size="14.00" fill="red">ping</text>
</g>
<!-- 2 -->
<g id="node6" class="node">
<title>2</title>
<polygon fill="none" stroke="blue" points="552.5,-450 293.5,-450 293.5,-414 552.5,-414 552.5,-450"/>
<text text-anchor="middle" x="423" y="-428.3" font-family="Times,serif" font-size="14.00">[2] SendFileSize .alice &#45;&gt; { .bob }</text>
</g>
<!-- 0&#45;&gt;2 -->
<g id="edge2" class="edge">
<title>0&#45;&gt;2</title>
<path fill="none" stroke="red" d="M865.7,-255.09C844.98,-264.46 818.67,-276.13 795,-286 683.41,-332.52 551.19,-382.96 478.26,-410.38"/>
<polygon fill="red" stroke="red" points="476.93,-407.14 468.8,-413.93 479.39,-413.69 476.93,-407.14"/>
<text text-anchor="middle" x="709" y="-341.3" font-family="Times,serif" font-size="14.00" fill="red">next</text>
</g>
<!-- 1&#45;&gt;0 -->
<g id="edge3" class="edge">
<title>1&#45;&gt;0</title>
<path fill="none" stroke="green" d="M910.49,-168.16C911.52,-177.83 912.23,-190.11 911,-201 910.71,-203.55 910.31,-206.18 909.84,-208.8"/>
<polygon fill="green" stroke="green" points="906.39,-208.18 907.77,-218.69 913.25,-209.62 906.39,-208.18"/>
<text text-anchor="middle" x="926" y="-189.8" font-family="Times,serif" font-size="14.00" fill="green">cast</text>
</g>
<!-- 8 -->
<g id="node3" class="node">
<title>8</title>
<polygon fill="none" stroke="darkred" points="786,-255 588,-255 588,-219 786,-219 786,-255"/>
<text text-anchor="middle" x="687" y="-233.3" font-family="Times,serif" font-size="14.00">[8] Ping .alice &#45;&gt; { .bob }</text>
</g>
<!-- 9 -->
<g id="node4" class="node">
<title>9</title>
<polygon fill="none" stroke="darkgreen" points="789.5,-168 588.5,-168 588.5,-132 789.5,-132 789.5,-168"/>
<text text-anchor="middle" x="689" y="-146.3" font-family="Times,serif" font-size="14.00">[9] Pong .bob &#45;&gt; { .alice }</text>
</g>
<!-- 8&#45;&gt;9 -->
<g id="edge14" class="edge">
<title>8&#45;&gt;9</title>
<path fill="none" stroke="darkred" d="M670.19,-218.96C662.96,-209.54 656.98,-197.45 661,-186 662.17,-182.67 663.8,-179.42 665.7,-176.32"/>
<polygon fill="darkred" stroke="darkred" points="668.62,-178.26 671.58,-168.09 662.92,-174.19 668.62,-178.26"/>
<text text-anchor="middle" x="677" y="-189.8" font-family="Times,serif" font-size="14.00" fill="darkred">ping</text>
</g>
<!-- 5 -->
<g id="node5" class="node">
<title>5</title>
<polygon fill="none" stroke="teal" points="469,-60 399,-60 399,-24 469,-24 469,-60"/>
<text text-anchor="middle" x="434" y="-38.3" font-family="Times,serif" font-size="14.00">[5] Exit</text>
</g>
<!-- 8&#45;&gt;5 -->
<g id="edge15" class="edge">
<title>8&#45;&gt;5</title>
<path fill="none" stroke="darkred" d="M786.14,-220.25C789.13,-219.82 792.09,-219.4 795,-219 901.71,-204.2 1088.75,-205.24 1018,-124 982.62,-83.37 610.4,-54.78 479.34,-45.91"/>
<polygon fill="darkred" stroke="darkred" points="479.45,-42.41 469.24,-45.23 478.98,-49.39 479.45,-42.41"/>
<text text-anchor="middle" x="1049" y="-146.3" font-family="Times,serif" font-size="14.00" fill="darkred">next</text>
</g>
<!-- 9&#45;&gt;8 -->
<g id="edge16" class="edge">
<title>9&#45;&gt;8</title>
<path fill="none" stroke="darkgreen" d="M691.77,-168.13C692.98,-177.78 693.93,-190.07 693,-201 692.78,-203.58 692.47,-206.26 692.11,-208.93"/>
<polygon fill="darkgreen" stroke="darkgreen" points="688.62,-208.56 690.51,-218.98 695.54,-209.66 688.62,-208.56"/>
<text text-anchor="middle" x="708" y="-189.8" font-family="Times,serif" font-size="14.00" fill="darkgreen">cast</text>
</g>
<!-- 3 -->
<g id="node7" class="node">
<title>3</title>
<polygon fill="none" stroke="brown" points="512,-363 310,-363 310,-327 512,-327 512,-363"/>
<text text-anchor="middle" x="411" y="-341.3" font-family="Times,serif" font-size="14.00">[3] Send .alice &#45;&gt; { .bob }</text>
</g>
<!-- 2&#45;&gt;3 -->
<g id="edge4" class="edge">
<title>2&#45;&gt;3</title>
<path fill="none" stroke="blue" d="M420.57,-413.8C418.93,-402.16 416.72,-386.55 414.85,-373.24"/>
<polygon fill="blue" stroke="blue" points="418.29,-372.59 413.42,-363.18 411.36,-373.57 418.29,-372.59"/>
<text text-anchor="middle" x="432" y="-384.8" font-family="Times,serif" font-size="14.00" fill="blue">cast</text>
</g>
<!-- 3&#45;&gt;8 -->
<g id="edge8" class="edge">
<title>3&#45;&gt;8</title>
<path fill="none" stroke="brown" d="M462.62,-326.89C495.33,-315.8 538.39,-300.72 576,-286 597.17,-277.71 620.29,-267.85 639.92,-259.22"/>
<polygon fill="brown" stroke="brown" points="641.52,-262.34 649.26,-255.1 638.7,-255.94 641.52,-262.34"/>
<text text-anchor="middle" x="587.5" y="-297.8" font-family="Times,serif" font-size="14.00" fill="brown">final_zero</text>
</g>
<!-- 3&#45;&gt;3 -->
<g id="edge6" class="edge">
<title>3&#45;&gt;3</title>
<path fill="none" stroke="brown" d="M512.14,-351.58C523.01,-350.31 530,-348.12 530,-345 530,-343 527.13,-341.39 522.21,-340.15"/>
<polygon fill="brown" stroke="brown" points="522.58,-336.66 512.14,-338.42 521.4,-343.56 522.58,-336.66"/>
<text text-anchor="middle" x="547" y="-341.3" font-family="Times,serif" font-size="14.00" fill="brown">send</text>
</g>
<!-- 4 -->
<g id="node8" class="node">
<title>4</title>
<polygon fill="none" stroke="navy" points="270,-255 24,-255 24,-219 270,-219 270,-255"/>
<text text-anchor="middle" x="147" y="-233.3" font-family="Times,serif" font-size="14.00">[4] CheckHash .bob &#45;&gt; { .alice }</text>
</g>
<!-- 3&#45;&gt;4 -->
<g id="edge5" class="edge">
<title>3&#45;&gt;4</title>
<path fill="none" stroke="brown" d="M309.93,-333.91C266.46,-328.17 221.43,-319.92 203,-309 184.93,-298.3 170.46,-279.4 160.76,-263.79"/>
<polygon fill="brown" stroke="brown" points="163.7,-261.89 155.6,-255.06 157.67,-265.45 163.7,-261.89"/>
<text text-anchor="middle" x="223.5" y="-297.8" font-family="Times,serif" font-size="14.00" fill="brown">check</text>
</g>
<!-- 6 -->
<g id="node9" class="node">
<title>6</title>
<polygon fill="none" stroke="cyan" points="563.5,-255 288.5,-255 288.5,-219 563.5,-219 563.5,-255"/>
<text text-anchor="middle" x="426" y="-233.3" font-family="Times,serif" font-size="14.00">[6] SendFinalHash .alice &#45;&gt; { .bob }</text>
</g>
<!-- 3&#45;&gt;6 -->
<g id="edge7" class="edge">
<title>3&#45;&gt;6</title>
<path fill="none" stroke="brown" d="M413.41,-326.97C415.76,-310.38 419.37,-284.88 422.12,-265.43"/>
<polygon fill="brown" stroke="brown" points="425.61,-265.73 423.55,-255.34 418.68,-264.75 425.61,-265.73"/>
<text text-anchor="middle" x="433.5" y="-297.8" font-family="Times,serif" font-size="14.00" fill="brown">final</text>
</g>
<!-- 4&#45;&gt;5 -->
<g id="edge10" class="edge">
<title>4&#45;&gt;5</title>
<path fill="none" stroke="navy" d="M160.52,-218.92C180.01,-195.17 218.08,-151.94 258,-124 299.24,-95.14 352.39,-72.35 389.45,-58.39"/>
<polygon fill="navy" stroke="navy" points="390.82,-61.61 398.98,-54.86 388.39,-55.05 390.82,-61.61"/>
<text text-anchor="middle" x="280" y="-146.3" font-family="Times,serif" font-size="14.00" fill="navy">Failed</text>
</g>
<!-- 4&#45;&gt;3 -->
<g id="edge9" class="edge">
<title>4&#45;&gt;3</title>
<path fill="none" stroke="navy" d="M189.75,-255.16C235.93,-273.71 309.53,-303.26 359.02,-323.13"/>
<polygon fill="navy" stroke="navy" points="358,-326.49 368.58,-326.97 360.61,-320 358,-326.49"/>
<text text-anchor="middle" x="355.5" y="-297.8" font-family="Times,serif" font-size="14.00" fill="navy">Successed</text>
</g>
<!-- 7 -->
<g id="node10" class="node">
<title>7</title>
<polygon fill="none" stroke="magenta" points="557,-168 311,-168 311,-132 557,-132 557,-168"/>
<text text-anchor="middle" x="434" y="-146.3" font-family="Times,serif" font-size="14.00">[7] CheckHash .bob &#45;&gt; { .alice }</text>
</g>
<!-- 6&#45;&gt;7 -->
<g id="edge11" class="edge">
<title>6&#45;&gt;7</title>
<path fill="none" stroke="cyan" d="M427.62,-218.8C428.71,-207.16 430.18,-191.55 431.44,-178.24"/>
<polygon fill="cyan" stroke="cyan" points="434.93,-178.46 432.38,-168.18 427.96,-177.8 434.93,-178.46"/>
<text text-anchor="middle" x="445" y="-189.8" font-family="Times,serif" font-size="14.00" fill="cyan">cast</text>
</g>
<!-- 7&#45;&gt;8 -->
<g id="edge12" class="edge">
<title>7&#45;&gt;8</title>
<path fill="none" stroke="magenta" d="M483.28,-168.06C511.55,-177.81 547.73,-190.2 580,-201 594.52,-205.86 610.17,-211.02 624.91,-215.85"/>
<polygon fill="magenta" stroke="magenta" points="623.84,-219.18 634.43,-218.97 626.02,-212.53 623.84,-219.18"/>
<text text-anchor="middle" x="617.5" y="-189.8" font-family="Times,serif" font-size="14.00" fill="magenta">Successed</text>
</g>
<!-- 7&#45;&gt;5 -->
<g id="edge13" class="edge">
<title>7&#45;&gt;5</title>
<path fill="none" stroke="magenta" d="M434,-131.97C434,-115.38 434,-89.88 434,-70.43"/>
<polygon fill="magenta" stroke="magenta" points="437.5,-70.34 434,-60.34 430.5,-70.34 437.5,-70.34"/>
<text text-anchor="middle" x="456" y="-102.8" font-family="Times,serif" font-size="14.00" fill="magenta">Failed</text>
</g>
</g>
</svg>
