<?xml version="1.0" encoding="UTF-8" standalone="no"?>
<!DOCTYPE svg PUBLIC "-//W3C//DTD SVG 1.1//EN"
 "http://www.w3.org/Graphics/SVG/1.1/DTD/svg11.dtd">
<!-- Generated by graphviz version 2.43.0 (0)
 -->
<!-- Title: fsm_state_graph Pages: 1 -->
<svg width="2002pt" height="990pt"
 viewBox="0.00 0.00 2002.00 990.00" xmlns="http://www.w3.org/2000/svg" xmlns:xlink="http://www.w3.org/1999/xlink">
<g id="graph0" class="graph" transform="scale(1 1) rotate(0) translate(4 986)">
<title>fsm_state_graph</title>
<polygon fill="white" stroke="transparent" points="-4,4 -4,-986 1998,-986 1998,4 -4,4"/>
<g id="clust1" class="cluster">
<title>cluster_transitions</title>
<polygon fill="none" stroke="black" points="8,-8 8,-974 1938,-974 1938,-8 8,-8"/>
<text text-anchor="middle" x="973" y="-958.8" font-family="Times,serif" font-size="14.00">State Transitions</text>
</g>
<g id="clust2" class="cluster">
<title>cluster_fsm_0</title>
<polygon fill="none" stroke="black" points="266,-147 266,-550 564,-550 564,-147 266,-147"/>
<text text-anchor="middle" x="415" y="-534.8" font-family="Times,serif" font-size="14.00">2pc_generic: { .alice, .bob, .charlie }</text>
</g>
<g id="clust3" class="cluster">
<title>cluster_fsm_1</title>
<polygon fill="none" stroke="black" points="1078,-147 1078,-550 1376,-550 1376,-147 1078,-147"/>
<text text-anchor="middle" x="1227" y="-534.8" font-family="Times,serif" font-size="14.00">2pc_generic: { .bob, .alice, .charlie }</text>
</g>
<g id="clust4" class="cluster">
<title>cluster_fsm_2</title>
<polygon fill="none" stroke="black" points="1632,-147 1632,-550 1930,-550 1930,-147 1632,-147"/>
<text text-anchor="middle" x="1781" y="-534.8" font-family="Times,serif" font-size="14.00">2pc_generic: { .charlie, .alice, .bob }</text>
</g>
<g id="clust5" class="cluster">
<title>cluster_fsm_3</title>
<polygon fill="none" stroke="black" points="408,-714 408,-943 626,-943 626,-714 408,-714"/>
<text text-anchor="middle" x="517" y="-927.8" font-family="Times,serif" font-size="14.00">pingpong: { .alice, .bob }</text>
</g>
<g id="clust6" class="cluster">
<title>cluster_fsm_4</title>
<polygon fill="none" stroke="black" points="809,-452 809,-681 1057,-681 1057,-452 809,-452"/>
<text text-anchor="middle" x="933" y="-665.8" font-family="Times,serif" font-size="14.00">pingpong: { .alice, .charlie }</text>
</g>
<g id="clust7" class="cluster">
<title>cluster_fsm_5</title>
<polygon fill="none" stroke="black" points="1103,-583 1103,-812 1337,-812 1337,-583 1103,-583"/>
<text text-anchor="middle" x="1220" y="-796.8" font-family="Times,serif" font-size="14.00">pingpong: { .bob, .charlie }</text>
</g>
<g id="clust8" class="cluster">
<title>cluster_fsm_6</title>
<polygon fill="none" stroke="black" points="1384,-452 1384,-681 1624,-681 1624,-452 1384,-452"/>
<text text-anchor="middle" x="1504" y="-665.8" font-family="Times,serif" font-size="14.00">pingpong: { .charlie, .alice }</text>
</g>
<g id="clust9" class="cluster">
<title>cluster_fsm_7</title>
<polygon fill="none" stroke="black" points="16,-452 16,-681 258,-681 258,-452 16,-452"/>
<text text-anchor="middle" x="137" y="-665.8" font-family="Times,serif" font-size="14.00">pingpong: { .charlie, .bob }</text>
</g>
<g id="clust10" class="cluster">
<title>cluster_fsm_8</title>
<polygon fill="none" stroke="black" points="958,-16 958,-114 1091,-114 1091,-16 958,-16"/>
<text text-anchor="middle" x="1024.5" y="-98.8" font-family="Times,serif" font-size="14.00">polysession_exit</text>
</g>
<g id="clust11" class="cluster">
<title>cluster_fsm_9</title>
<polygon fill="none" stroke="black" points="593,-147 593,-245 1048,-245 1048,-147 593,-147"/>
<text text-anchor="middle" x="820.5" y="-229.8" font-family="Times,serif" font-size="14.00">random_pingpong_and_2pc: { .selector, .charlie, .alice, .bob }</text>
</g>
<!-- 14 -->
<g id="node1" class="node">
<title>14</title>
<polygon fill="none" stroke="green" points="552,-496 274,-496 274,-460 552,-460 552,-496"/>
<text text-anchor="middle" x="413" y="-474.3" font-family="Times,serif" font-size="14.00">[14] Begin .alice &#45;&gt; { .bob, .charlie }</text>
</g>
<!-- 15 -->
<g id="node2" class="node">
<title>15</title>
<polygon fill="none" stroke="blue" points="519.5,-409 274.5,-409 274.5,-373 519.5,-373 519.5,-409"/>
<text text-anchor="middle" x="397" y="-387.3" font-family="Times,serif" font-size="14.00">[15] AliceResp .bob &#45;&gt; { .alice }</text>
</g>
<!-- 14&#45;&gt;15 -->
<g id="edge23" class="edge">
<title>14&#45;&gt;15</title>
<path fill="none" stroke="green" d="M409.76,-459.8C407.57,-448.16 404.63,-432.55 402.13,-419.24"/>
<polygon fill="green" stroke="green" points="405.52,-418.36 400.23,-409.18 398.64,-419.65 405.52,-418.36"/>
<text text-anchor="middle" x="425" y="-430.8" font-family="Times,serif" font-size="14.00" fill="green">begin</text>
</g>
<!-- 16 -->
<g id="node3" class="node">
<title>16</title>
<polygon fill="none" stroke="brown" points="534,-322 274,-322 274,-286 534,-286 534,-322"/>
<text text-anchor="middle" x="404" y="-300.3" font-family="Times,serif" font-size="14.00">[16] BobResp .charlie &#45;&gt; { .alice }</text>
</g>
<!-- 15&#45;&gt;16 -->
<g id="edge24" class="edge">
<title>15&#45;&gt;16</title>
<path fill="none" stroke="blue" d="M398.42,-372.8C399.37,-361.16 400.66,-345.55 401.76,-332.24"/>
<polygon fill="blue" stroke="blue" points="405.25,-332.43 402.59,-322.18 398.28,-331.85 405.25,-332.43"/>
<text text-anchor="middle" x="416" y="-343.8" font-family="Times,serif" font-size="14.00" fill="blue">resp</text>
</g>
<!-- 17 -->
<g id="node4" class="node">
<title>17</title>
<polygon fill="none" stroke="navy" points="555.5,-191 274.5,-191 274.5,-155 555.5,-155 555.5,-191"/>
<text text-anchor="middle" x="415" y="-169.3" font-family="Times,serif" font-size="14.00">[17] Check .alice &#45;&gt; { .bob, .charlie }</text>
</g>
<!-- 16&#45;&gt;17 -->
<g id="edge25" class="edge">
<title>16&#45;&gt;17</title>
<path fill="none" stroke="brown" d="M405.46,-285.87C407.3,-264.28 410.49,-226.91 412.67,-201.35"/>
<polygon fill="brown" stroke="brown" points="416.17,-201.46 413.53,-191.2 409.2,-200.87 416.17,-201.46"/>
<text text-anchor="middle" x="424" y="-256.8" font-family="Times,serif" font-size="14.00" fill="brown">resp</text>
</g>
<!-- 17&#45;&gt;14 -->
<g id="edge28" class="edge">
<title>17&#45;&gt;14</title>
<path fill="none" stroke="navy" d="M449.78,-191.19C498.28,-217.56 576.72,-270.38 543,-322 532.12,-338.66 512.88,-323.34 502,-340 498.35,-345.58 498.85,-349.12 502,-355 508.81,-367.72 522.19,-360.28 529,-373 536.55,-387.11 536.95,-395.12 529,-409 517.02,-429.91 495.84,-445.01 474.83,-455.59"/>
<polygon fill="navy" stroke="navy" points="473.08,-452.55 465.54,-459.99 476.08,-458.87 473.08,-452.55"/>
<text text-anchor="middle" x="543.5" y="-343.8" font-family="Times,serif" font-size="14.00" fill="navy">failed_retry</text>
</g>
<!-- 11 -->
<g id="node23" class="node">
<title>11</title>
<polygon fill="none" stroke="orange" points="1063.5,-60 984.5,-60 984.5,-24 1063.5,-24 1063.5,-60"/>
<text text-anchor="middle" x="1024" y="-38.3" font-family="Times,serif" font-size="14.00">[11] Exit</text>
</g>
<!-- 17&#45;&gt;11 -->
<g id="edge27" class="edge">
<title>17&#45;&gt;11</title>
<path fill="none" stroke="navy" d="M495.56,-154.94C623.51,-127.83 869.46,-75.74 974.48,-53.49"/>
<polygon fill="navy" stroke="navy" points="975.44,-56.86 984.5,-51.37 973.99,-50.02 975.44,-56.86"/>
<text text-anchor="middle" x="667" y="-125.8" font-family="Times,serif" font-size="14.00" fill="navy">failed</text>
</g>
<!-- 0 -->
<g id="node24" class="node">
<title>0</title>
<polygon fill="none" stroke="red" points="988.5,-191 653.5,-191 653.5,-155 988.5,-155 988.5,-191"/>
<text text-anchor="middle" x="821" y="-169.3" font-family="Times,serif" font-size="14.00">[0] Start .selector &#45;&gt; { .charlie, .alice, .bob }</text>
</g>
<!-- 17&#45;&gt;0 -->
<g id="edge26" class="edge">
<title>17&#45;&gt;0</title>
<path fill="none" stroke="navy" d="M555.58,-173C583.76,-173 613.71,-173 642.97,-173"/>
<polygon fill="navy" stroke="navy" points="643.29,-176.5 653.29,-173 643.29,-169.5 643.29,-176.5"/>
<text text-anchor="middle" x="604.5" y="-179.8" font-family="Times,serif" font-size="14.00" fill="navy">succcessed</text>
</g>
<!-- 20 -->
<g id="node5" class="node">
<title>20</title>
<polygon fill="none" stroke="magenta" points="1366,-496 1088,-496 1088,-460 1366,-460 1366,-496"/>
<text text-anchor="middle" x="1227" y="-474.3" font-family="Times,serif" font-size="14.00">[20] Begin .bob &#45;&gt; { .alice, .charlie }</text>
</g>
<!-- 21 -->
<g id="node6" class="node">
<title>21</title>
<polygon fill="none" stroke="darkred" points="1332.5,-409 1087.5,-409 1087.5,-373 1332.5,-373 1332.5,-409"/>
<text text-anchor="middle" x="1210" y="-387.3" font-family="Times,serif" font-size="14.00">[21] AliceResp .alice &#45;&gt; { .bob }</text>
</g>
<!-- 20&#45;&gt;21 -->
<g id="edge32" class="edge">
<title>20&#45;&gt;21</title>
<path fill="none" stroke="magenta" d="M1223.56,-459.8C1221.23,-448.16 1218.11,-432.55 1215.45,-419.24"/>
<polygon fill="magenta" stroke="magenta" points="1218.83,-418.29 1213.44,-409.18 1211.96,-419.67 1218.83,-418.29"/>
<text text-anchor="middle" x="1239" y="-430.8" font-family="Times,serif" font-size="14.00" fill="magenta">begin</text>
</g>
<!-- 22 -->
<g id="node7" class="node">
<title>22</title>
<polygon fill="none" stroke="darkgreen" points="1340,-322 1086,-322 1086,-286 1340,-286 1340,-322"/>
<text text-anchor="middle" x="1213" y="-300.3" font-family="Times,serif" font-size="14.00">[22] BobResp .charlie &#45;&gt; { .bob }</text>
</g>
<!-- 21&#45;&gt;22 -->
<g id="edge33" class="edge">
<title>21&#45;&gt;22</title>
<path fill="none" stroke="darkred" d="M1210.61,-372.8C1211.02,-361.16 1211.57,-345.55 1212.04,-332.24"/>
<polygon fill="darkred" stroke="darkred" points="1215.54,-332.29 1212.39,-322.18 1208.54,-332.05 1215.54,-332.29"/>
<text text-anchor="middle" x="1227" y="-343.8" font-family="Times,serif" font-size="14.00" fill="darkred">resp</text>
</g>
<!-- 23 -->
<g id="node8" class="node">
<title>23</title>
<polygon fill="none" stroke="darkblue" points="1367.5,-191 1086.5,-191 1086.5,-155 1367.5,-155 1367.5,-191"/>
<text text-anchor="middle" x="1227" y="-169.3" font-family="Times,serif" font-size="14.00">[23] Check .bob &#45;&gt; { .alice, .charlie }</text>
</g>
<!-- 22&#45;&gt;23 -->
<g id="edge34" class="edge">
<title>22&#45;&gt;23</title>
<path fill="none" stroke="darkgreen" d="M1214.86,-285.87C1217.2,-264.28 1221.26,-226.91 1224.03,-201.35"/>
<polygon fill="darkgreen" stroke="darkgreen" points="1227.53,-201.52 1225.13,-191.2 1220.57,-200.77 1227.53,-201.52"/>
<text text-anchor="middle" x="1234" y="-256.8" font-family="Times,serif" font-size="14.00" fill="darkgreen">resp</text>
</g>
<!-- 23&#45;&gt;20 -->
<g id="edge37" class="edge">
<title>23&#45;&gt;20</title>
<path fill="none" stroke="darkblue" d="M1275.32,-191.14C1302.82,-203.68 1334.92,-223.68 1351,-253 1384.4,-313.89 1378.8,-350.11 1342,-409 1329.1,-429.65 1307.44,-444.79 1286.38,-455.48"/>
<polygon fill="darkblue" stroke="darkblue" points="1284.6,-452.45 1277.1,-459.94 1287.63,-458.76 1284.6,-452.45"/>
<text text-anchor="middle" x="1412.5" y="-343.8" font-family="Times,serif" font-size="14.00" fill="darkblue">failed_retry</text>
</g>
<!-- 23&#45;&gt;11 -->
<g id="edge36" class="edge">
<title>23&#45;&gt;11</title>
<path fill="none" stroke="darkblue" d="M1200.04,-154.87C1163.95,-131.93 1099.82,-91.18 1059.73,-65.7"/>
<polygon fill="darkblue" stroke="darkblue" points="1061.39,-62.61 1051.07,-60.2 1057.63,-68.52 1061.39,-62.61"/>
<text text-anchor="middle" x="1187" y="-125.8" font-family="Times,serif" font-size="14.00" fill="darkblue">failed</text>
</g>
<!-- 23&#45;&gt;0 -->
<g id="edge35" class="edge">
<title>23&#45;&gt;0</title>
<path fill="none" stroke="darkblue" d="M1086.29,-173C1058.16,-173 1028.26,-173 999.07,-173"/>
<polygon fill="darkblue" stroke="darkblue" points="998.77,-169.5 988.77,-173 998.77,-176.5 998.77,-169.5"/>
<text text-anchor="middle" x="1037.5" y="-179.8" font-family="Times,serif" font-size="14.00" fill="darkblue">succcessed</text>
</g>
<!-- 7 -->
<g id="node9" class="node">
<title>7</title>
<polygon fill="none" stroke="magenta" points="1909.5,-496 1640.5,-496 1640.5,-460 1909.5,-460 1909.5,-496"/>
<text text-anchor="middle" x="1775" y="-474.3" font-family="Times,serif" font-size="14.00">[7] Begin .charlie &#45;&gt; { .alice, .bob }</text>
</g>
<!-- 8 -->
<g id="node10" class="node">
<title>8</title>
<polygon fill="none" stroke="darkred" points="1898,-409 1640,-409 1640,-373 1898,-373 1898,-409"/>
<text text-anchor="middle" x="1769" y="-387.3" font-family="Times,serif" font-size="14.00">[8] AliceResp .alice &#45;&gt; { .charlie }</text>
</g>
<!-- 7&#45;&gt;8 -->
<g id="edge14" class="edge">
<title>7&#45;&gt;8</title>
<path fill="none" stroke="magenta" d="M1773.79,-459.8C1772.96,-448.16 1771.86,-432.55 1770.92,-419.24"/>
<polygon fill="magenta" stroke="magenta" points="1774.41,-418.9 1770.21,-409.18 1767.43,-419.4 1774.41,-418.9"/>
<text text-anchor="middle" x="1792" y="-430.8" font-family="Times,serif" font-size="14.00" fill="magenta">begin</text>
</g>
<!-- 9 -->
<g id="node11" class="node">
<title>9</title>
<polygon fill="none" stroke="darkgreen" points="1885.5,-322 1640.5,-322 1640.5,-286 1885.5,-286 1885.5,-322"/>
<text text-anchor="middle" x="1763" y="-300.3" font-family="Times,serif" font-size="14.00">[9] BobResp .bob &#45;&gt; { .charlie }</text>
</g>
<!-- 8&#45;&gt;9 -->
<g id="edge15" class="edge">
<title>8&#45;&gt;9</title>
<path fill="none" stroke="darkred" d="M1767.79,-372.8C1766.96,-361.16 1765.86,-345.55 1764.92,-332.24"/>
<polygon fill="darkred" stroke="darkred" points="1768.41,-331.9 1764.21,-322.18 1761.43,-332.4 1768.41,-331.9"/>
<text text-anchor="middle" x="1782" y="-343.8" font-family="Times,serif" font-size="14.00" fill="darkred">resp</text>
</g>
<!-- 10 -->
<g id="node12" class="node">
<title>10</title>
<polygon fill="none" stroke="darkblue" points="1921.5,-191 1640.5,-191 1640.5,-155 1921.5,-155 1921.5,-191"/>
<text text-anchor="middle" x="1781" y="-169.3" font-family="Times,serif" font-size="14.00">[10] Check .charlie &#45;&gt; { .alice, .bob }</text>
</g>
<!-- 9&#45;&gt;10 -->
<g id="edge16" class="edge">
<title>9&#45;&gt;10</title>
<path fill="none" stroke="darkgreen" d="M1765.39,-285.87C1768.4,-264.28 1773.62,-226.91 1777.18,-201.35"/>
<polygon fill="darkgreen" stroke="darkgreen" points="1780.68,-201.59 1778.6,-191.2 1773.75,-200.62 1780.68,-201.59"/>
<text text-anchor="middle" x="1785" y="-256.8" font-family="Times,serif" font-size="14.00" fill="darkgreen">resp</text>
</g>
<!-- 10&#45;&gt;7 -->
<g id="edge19" class="edge">
<title>10&#45;&gt;7</title>
<path fill="none" stroke="darkblue" d="M1806.67,-191.25C1833.53,-210.81 1874.57,-245.34 1895,-286 1908.95,-313.76 1920.17,-387.39 1907,-409 1893.85,-430.57 1871.42,-445.59 1848.75,-455.91"/>
<polygon fill="darkblue" stroke="darkblue" points="1847.21,-452.77 1839.39,-459.92 1849.96,-459.2 1847.21,-452.77"/>
<text text-anchor="middle" x="1952.5" y="-343.8" font-family="Times,serif" font-size="14.00" fill="darkblue">failed_retry</text>
</g>
<!-- 10&#45;&gt;11 -->
<g id="edge18" class="edge">
<title>10&#45;&gt;11</title>
<path fill="none" stroke="darkblue" d="M1680.87,-154.94C1516.71,-126.96 1196.34,-72.37 1073.54,-51.44"/>
<polygon fill="darkblue" stroke="darkblue" points="1074.1,-47.99 1063.66,-49.76 1072.93,-54.89 1074.1,-47.99"/>
<text text-anchor="middle" x="1577" y="-125.8" font-family="Times,serif" font-size="14.00" fill="darkblue">failed</text>
</g>
<!-- 10&#45;&gt;0 -->
<g id="edge17" class="edge">
<title>10&#45;&gt;0</title>
<path fill="none" stroke="darkblue" d="M1712.03,-191.1C1585.3,-221.91 1307,-278.12 1074,-245 1005.61,-235.28 929.72,-211.91 879.06,-194.42"/>
<polygon fill="darkblue" stroke="darkblue" points="880.19,-191.1 869.59,-191.11 877.88,-197.71 880.19,-191.1"/>
<text text-anchor="middle" x="1307" y="-256.8" font-family="Times,serif" font-size="14.00" fill="darkblue">succcessed</text>
</g>
<!-- 1 -->
<g id="node13" class="node">
<title>1</title>
<polygon fill="none" stroke="green" points="618,-889 420,-889 420,-853 618,-853 618,-889"/>
<text text-anchor="middle" x="519" y="-867.3" font-family="Times,serif" font-size="14.00">[1] Ping .alice &#45;&gt; { .bob }</text>
</g>
<!-- 2 -->
<g id="node14" class="node">
<title>2</title>
<polygon fill="none" stroke="blue" points="617.5,-758 416.5,-758 416.5,-722 617.5,-722 617.5,-758"/>
<text text-anchor="middle" x="517" y="-736.3" font-family="Times,serif" font-size="14.00">[2] Pong .bob &#45;&gt; { .alice }</text>
</g>
<!-- 1&#45;&gt;2 -->
<g id="edge5" class="edge">
<title>1&#45;&gt;2</title>
<path fill="none" stroke="green" d="M502.19,-852.82C498.05,-847.53 494.18,-841.39 492,-835 484.31,-812.44 492.7,-786.18 501.78,-767.16"/>
<polygon fill="green" stroke="green" points="504.93,-768.69 506.36,-758.19 498.69,-765.5 504.93,-768.69"/>
<text text-anchor="middle" x="508" y="-823.8" font-family="Times,serif" font-size="14.00" fill="green">ping</text>
</g>
<!-- 3 -->
<g id="node17" class="node">
<title>3</title>
<polygon fill="none" stroke="brown" points="1327,-758 1113,-758 1113,-722 1327,-722 1327,-758"/>
<text text-anchor="middle" x="1220" y="-736.3" font-family="Times,serif" font-size="14.00">[3] Ping .bob &#45;&gt; { .charlie }</text>
</g>
<!-- 1&#45;&gt;3 -->
<g id="edge6" class="edge">
<title>1&#45;&gt;3</title>
<path fill="none" stroke="green" d="M611.73,-852.94C742.78,-828.82 981.35,-784.92 1117.51,-759.86"/>
<polygon fill="green" stroke="green" points="1118.34,-763.27 1127.54,-758.02 1117.07,-756.38 1118.34,-763.27"/>
<text text-anchor="middle" x="802" y="-823.8" font-family="Times,serif" font-size="14.00" fill="green">next</text>
</g>
<!-- 2&#45;&gt;1 -->
<g id="edge7" class="edge">
<title>2&#45;&gt;1</title>
<path fill="none" stroke="blue" d="M519.8,-758.32C522.49,-777.18 525.9,-808.23 524,-835 523.82,-837.57 523.56,-840.24 523.26,-842.91"/>
<polygon fill="blue" stroke="blue" points="519.77,-842.59 521.93,-852.96 526.71,-843.51 519.77,-842.59"/>
<text text-anchor="middle" x="539" y="-823.8" font-family="Times,serif" font-size="14.00" fill="blue">cast</text>
</g>
<!-- 18 -->
<g id="node15" class="node">
<title>18</title>
<polygon fill="none" stroke="teal" points="1049,-627 819,-627 819,-591 1049,-591 1049,-627"/>
<text text-anchor="middle" x="934" y="-605.3" font-family="Times,serif" font-size="14.00">[18] Ping .alice &#45;&gt; { .charlie }</text>
</g>
<!-- 18&#45;&gt;20 -->
<g id="edge30" class="edge">
<title>18&#45;&gt;20</title>
<path fill="none" stroke="teal" d="M1019.75,-590.98C1038,-586.14 1056.91,-580.18 1074,-573 1118.99,-554.09 1166.17,-523.15 1196.04,-501.97"/>
<polygon fill="teal" stroke="teal" points="1198.27,-504.68 1204.36,-496.01 1194.19,-498.99 1198.27,-504.68"/>
<text text-anchor="middle" x="1121" y="-561.8" font-family="Times,serif" font-size="14.00" fill="teal">next</text>
</g>
<!-- 19 -->
<g id="node16" class="node">
<title>19</title>
<polygon fill="none" stroke="cyan" points="1049.5,-496 816.5,-496 816.5,-460 1049.5,-460 1049.5,-496"/>
<text text-anchor="middle" x="933" y="-474.3" font-family="Times,serif" font-size="14.00">[19] Pong .charlie &#45;&gt; { .alice }</text>
</g>
<!-- 18&#45;&gt;19 -->
<g id="edge29" class="edge">
<title>18&#45;&gt;19</title>
<path fill="none" stroke="teal" d="M917.19,-590.82C913.05,-585.53 909.18,-579.39 907,-573 899.29,-550.38 907.99,-524.13 917.34,-505.12"/>
<polygon fill="teal" stroke="teal" points="920.5,-506.64 922.06,-496.16 914.3,-503.38 920.5,-506.64"/>
<text text-anchor="middle" x="923" y="-561.8" font-family="Times,serif" font-size="14.00" fill="teal">ping</text>
</g>
<!-- 19&#45;&gt;18 -->
<g id="edge31" class="edge">
<title>19&#45;&gt;18</title>
<path fill="none" stroke="cyan" d="M935.5,-496.33C937.9,-515.2 940.9,-546.25 939,-573 938.82,-575.57 938.56,-578.24 938.26,-580.91"/>
<polygon fill="cyan" stroke="cyan" points="934.77,-580.59 936.93,-590.96 941.71,-581.51 934.77,-580.59"/>
<text text-anchor="middle" x="954" y="-561.8" font-family="Times,serif" font-size="14.00" fill="cyan">cast</text>
</g>
<!-- 4 -->
<g id="node18" class="node">
<title>4</title>
<polygon fill="none" stroke="navy" points="1328.5,-627 1111.5,-627 1111.5,-591 1328.5,-591 1328.5,-627"/>
<text text-anchor="middle" x="1220" y="-605.3" font-family="Times,serif" font-size="14.00">[4] Pong .charlie &#45;&gt; { .bob }</text>
</g>
<!-- 3&#45;&gt;4 -->
<g id="edge8" class="edge">
<title>3&#45;&gt;4</title>
<path fill="none" stroke="brown" d="M1183.59,-721.98C1176.93,-717.14 1170.87,-711.19 1167,-704 1163.84,-698.13 1165.06,-695.38 1167,-689 1173.03,-669.19 1185.87,-649.83 1197.4,-635.24"/>
<polygon fill="brown" stroke="brown" points="1200.33,-637.18 1203.98,-627.23 1194.92,-632.73 1200.33,-637.18"/>
<text text-anchor="middle" x="1183" y="-692.8" font-family="Times,serif" font-size="14.00" fill="brown">ping</text>
</g>
<!-- 5 -->
<g id="node19" class="node">
<title>5</title>
<polygon fill="none" stroke="teal" points="1614.5,-627 1393.5,-627 1393.5,-591 1614.5,-591 1614.5,-627"/>
<text text-anchor="middle" x="1504" y="-605.3" font-family="Times,serif" font-size="14.00">[5] Ping .charlie &#45;&gt; { .alice }</text>
</g>
<!-- 3&#45;&gt;5 -->
<g id="edge9" class="edge">
<title>3&#45;&gt;5</title>
<path fill="none" stroke="brown" d="M1257.71,-721.87C1309.06,-698.55 1400.96,-656.8 1456.81,-631.43"/>
<polygon fill="brown" stroke="brown" points="1458.47,-634.52 1466.13,-627.2 1455.58,-628.15 1458.47,-634.52"/>
<text text-anchor="middle" x="1344" y="-692.8" font-family="Times,serif" font-size="14.00" fill="brown">next</text>
</g>
<!-- 4&#45;&gt;3 -->
<g id="edge10" class="edge">
<title>4&#45;&gt;3</title>
<path fill="none" stroke="navy" d="M1220,-627.2C1220,-648.82 1220,-686.2 1220,-711.73"/>
<polygon fill="navy" stroke="navy" points="1216.5,-711.87 1220,-721.87 1223.5,-711.87 1216.5,-711.87"/>
<text text-anchor="middle" x="1235" y="-692.8" font-family="Times,serif" font-size="14.00" fill="navy">cast</text>
</g>
<!-- 5&#45;&gt;7 -->
<g id="edge12" class="edge">
<title>5&#45;&gt;7</title>
<path fill="none" stroke="teal" d="M1540.68,-590.99C1565.39,-579.49 1598.7,-563.93 1628,-550 1662.65,-533.53 1701.75,-514.63 1730.91,-500.47"/>
<polygon fill="teal" stroke="teal" points="1732.55,-503.57 1740.01,-496.05 1729.49,-497.27 1732.55,-503.57"/>
<text text-anchor="middle" x="1623" y="-561.8" font-family="Times,serif" font-size="14.00" fill="teal">next</text>
</g>
<!-- 6 -->
<g id="node20" class="node">
<title>6</title>
<polygon fill="none" stroke="cyan" points="1616,-496 1392,-496 1392,-460 1616,-460 1616,-496"/>
<text text-anchor="middle" x="1504" y="-474.3" font-family="Times,serif" font-size="14.00">[6] Pong .alice &#45;&gt; { .charlie }</text>
</g>
<!-- 5&#45;&gt;6 -->
<g id="edge11" class="edge">
<title>5&#45;&gt;6</title>
<path fill="none" stroke="teal" d="M1467.59,-590.98C1460.93,-586.14 1454.87,-580.19 1451,-573 1447.84,-567.13 1449.06,-564.38 1451,-558 1457.03,-538.19 1469.87,-518.83 1481.4,-504.24"/>
<polygon fill="teal" stroke="teal" points="1484.33,-506.18 1487.98,-496.23 1478.92,-501.73 1484.33,-506.18"/>
<text text-anchor="middle" x="1467" y="-561.8" font-family="Times,serif" font-size="14.00" fill="teal">ping</text>
</g>
<!-- 6&#45;&gt;5 -->
<g id="edge13" class="edge">
<title>6&#45;&gt;5</title>
<path fill="none" stroke="cyan" d="M1504,-496.2C1504,-517.82 1504,-555.2 1504,-580.73"/>
<polygon fill="cyan" stroke="cyan" points="1500.5,-580.87 1504,-590.87 1507.5,-580.87 1500.5,-580.87"/>
<text text-anchor="middle" x="1519" y="-561.8" font-family="Times,serif" font-size="14.00" fill="cyan">cast</text>
</g>
<!-- 12 -->
<g id="node21" class="node">
<title>12</title>
<polygon fill="none" stroke="purple" points="250.5,-627 27.5,-627 27.5,-591 250.5,-591 250.5,-627"/>
<text text-anchor="middle" x="139" y="-605.3" font-family="Times,serif" font-size="14.00">[12] Ping .charlie &#45;&gt; { .bob }</text>
</g>
<!-- 12&#45;&gt;14 -->
<g id="edge21" class="edge">
<title>12&#45;&gt;14</title>
<path fill="none" stroke="purple" d="M175.39,-590.87C224.82,-567.59 313.22,-525.98 367.14,-500.59"/>
<polygon fill="purple" stroke="purple" points="368.91,-503.63 376.46,-496.2 365.93,-497.29 368.91,-503.63"/>
<text text-anchor="middle" x="259" y="-561.8" font-family="Times,serif" font-size="14.00" fill="purple">next</text>
</g>
<!-- 13 -->
<g id="node22" class="node">
<title>13</title>
<polygon fill="none" stroke="red" points="250,-496 24,-496 24,-460 250,-460 250,-496"/>
<text text-anchor="middle" x="137" y="-474.3" font-family="Times,serif" font-size="14.00">[13] Pong .bob &#45;&gt; { .charlie }</text>
</g>
<!-- 12&#45;&gt;13 -->
<g id="edge20" class="edge">
<title>12&#45;&gt;13</title>
<path fill="none" stroke="purple" d="M122.19,-590.82C118.05,-585.53 114.18,-579.39 112,-573 104.31,-550.44 112.7,-524.18 121.78,-505.16"/>
<polygon fill="purple" stroke="purple" points="124.93,-506.69 126.36,-496.19 118.69,-503.5 124.93,-506.69"/>
<text text-anchor="middle" x="128" y="-561.8" font-family="Times,serif" font-size="14.00" fill="purple">ping</text>
</g>
<!-- 13&#45;&gt;12 -->
<g id="edge22" class="edge">
<title>13&#45;&gt;12</title>
<path fill="none" stroke="red" d="M139.8,-496.32C142.49,-515.18 145.9,-546.23 144,-573 143.82,-575.57 143.56,-578.24 143.26,-580.91"/>
<polygon fill="red" stroke="red" points="139.77,-580.59 141.93,-590.96 146.71,-581.51 139.77,-580.59"/>
<text text-anchor="middle" x="160" y="-561.8" font-family="Times,serif" font-size="14.00" fill="red">cast</text>
</g>
<!-- 0&#45;&gt;1 -->
<g id="edge1" class="edge">
<title>0&#45;&gt;1</title>
<path fill="none" stroke="red" d="M819.59,-191.1C815.24,-233.35 798.49,-343.95 739,-409 707.72,-443.2 670.32,-413.85 644,-452 615.55,-493.23 637,-514.4 637,-564.5 637,-741 637,-741 637,-741 637,-772.87 645.23,-785.86 627,-812 616.01,-827.76 599.34,-839.62 582.36,-848.37"/>
<polygon fill="red" stroke="red" points="580.42,-845.42 572.93,-852.91 583.46,-851.72 580.42,-845.42"/>
<text text-anchor="middle" x="724.5" y="-474.3" font-family="Times,serif" font-size="14.00" fill="red">charlie_as_coordinator</text>
</g>
<!-- 0&#45;&gt;18 -->
<g id="edge3" class="edge">
<title>0&#45;&gt;18</title>
<path fill="none" stroke="red" d="M824.57,-191.23C834.36,-234.26 865.68,-347.4 935,-409 978.6,-447.75 1025.18,-404.48 1059,-452 1071.63,-469.74 1070.72,-531.64 1059,-550 1048.53,-566.4 1032.1,-578.23 1014.55,-586.75"/>
<polygon fill="red" stroke="red" points="1012.98,-583.61 1005.29,-590.9 1015.85,-590 1012.98,-583.61"/>
<text text-anchor="middle" x="1004.5" y="-387.3" font-family="Times,serif" font-size="14.00" fill="red">bob_as_coordinator</text>
</g>
<!-- 0&#45;&gt;12 -->
<g id="edge2" class="edge">
<title>0&#45;&gt;12</title>
<path fill="none" stroke="red" d="M717.32,-191.01C655.92,-207.67 590,-240.19 590,-303 590,-479 590,-479 590,-479 590,-512.04 593.22,-528.66 568,-550 522.87,-588.2 371.16,-601.35 260.93,-605.82"/>
<polygon fill="red" stroke="red" points="260.59,-602.33 250.74,-606.21 260.86,-609.32 260.59,-602.33"/>
<text text-anchor="middle" x="662.5" y="-387.3" font-family="Times,serif" font-size="14.00" fill="red">alice_as_coordinator</text>
</g>
<!-- 0&#45;&gt;11 -->
<g id="edge4" class="edge">
<title>0&#45;&gt;11</title>
<path fill="none" stroke="red" d="M847.96,-154.87C884.05,-131.93 948.18,-91.18 988.27,-65.7"/>
<polygon fill="red" stroke="red" points="990.37,-68.52 996.93,-60.2 986.61,-62.61 990.37,-68.52"/>
<text text-anchor="middle" x="912" y="-125.8" font-family="Times,serif" font-size="14.00" fill="red">exit</text>
</g>
</g>
</svg>
