<?xml version="1.0" encoding="UTF-8" standalone="no"?>
<!DOCTYPE svg PUBLIC "-//W3C//DTD SVG 1.1//EN"
 "http://www.w3.org/Graphics/SVG/1.1/DTD/svg11.dtd">
<!-- Generated by graphviz version 2.43.0 (0)
 -->
<!-- Title: fsm_state_graph Pages: 1 -->
<svg width="489pt" height="507pt"
 viewBox="0.00 0.00 489.00 507.00" xmlns="http://www.w3.org/2000/svg" xmlns:xlink="http://www.w3.org/1999/xlink">
<g id="graph0" class="graph" transform="scale(1 1) rotate(0) translate(4 503)">
<title>fsm_state_graph</title>
<polygon fill="white" stroke="transparent" points="-4,4 -4,-503 485,-503 485,4 -4,4"/>
<g id="clust1" class="cluster">
<title>cluster_transitions</title>
<polygon fill="none" stroke="black" points="8,-8 8,-491 473,-491 473,-8 8,-8"/>
<text text-anchor="middle" x="240.5" y="-475.8" font-family="Times,serif" font-size="14.00">State Transitions</text>
</g>
<g id="clust2" class="cluster">
<title>cluster_fsm_0</title>
<polygon fill="none" stroke="black" points="215,-16 215,-91 322,-91 322,-16 215,-16"/>
<text text-anchor="middle" x="268.5" y="-75.8" font-family="Times,serif" font-size="14.00">polysession_exit</text>
</g>
<g id="clust3" class="cluster">
<title>cluster_fsm_1</title>
<polygon fill="none" stroke="black" points="16,-124 16,-460 465,-460 465,-124 16,-124"/>
<text text-anchor="middle" x="240.5" y="-444.8" font-family="Times,serif" font-size="14.00">sendfile: { .alice, .bob }</text>
</g>
<!-- 3 -->
<g id="node1" class="node">
<title>3</title>
<polygon fill="none" stroke="brown" points="297.5,-60 238.5,-60 238.5,-24 297.5,-24 297.5,-60"/>
<text text-anchor="middle" x="268" y="-38.3" font-family="Times,serif" font-size="14.00">[3] Exit</text>
</g>
<!-- 0 -->
<g id="node2" class="node">
<title>0</title>
<polygon fill="none" stroke="red" points="382,-429 176,-429 176,-393 382,-393 382,-429"/>
<text text-anchor="middle" x="279" y="-407.3" font-family="Times,serif" font-size="14.00">[0] SendFileSize .alice &#45;&gt; { .bob }</text>
</g>
<!-- 1 -->
<g id="node3" class="node">
<title>1</title>
<polygon fill="none" stroke="green" points="359.5,-342 198.5,-342 198.5,-306 359.5,-306 359.5,-342"/>
<text text-anchor="middle" x="279" y="-320.3" font-family="Times,serif" font-size="14.00">[1] Send .alice &#45;&gt; { .bob }</text>
</g>
<!-- 0&#45;&gt;1 -->
<g id="edge1" class="edge">
<title>0&#45;&gt;1</title>
<path fill="none" stroke="red" d="M279,-392.8C279,-381.16 279,-365.55 279,-352.24"/>
<polygon fill="red" stroke="red" points="282.5,-352.18 279,-342.18 275.5,-352.18 282.5,-352.18"/>
<text text-anchor="middle" x="290" y="-363.8" font-family="Times,serif" font-size="14.00" fill="red">cast</text>
</g>
<!-- 1&#45;&gt;1 -->
<g id="edge3" class="edge">
<title>1&#45;&gt;1</title>
<path fill="none" stroke="green" d="M359.77,-330.94C370.43,-329.76 377.5,-327.45 377.5,-324 377.5,-321.79 374.6,-320.05 369.71,-318.77"/>
<polygon fill="green" stroke="green" points="370.22,-315.31 359.77,-317.06 369.03,-322.2 370.22,-315.31"/>
<text text-anchor="middle" x="390" y="-320.3" font-family="Times,serif" font-size="14.00" fill="green">send</text>
</g>
<!-- 2 -->
<g id="node4" class="node">
<title>2</title>
<polygon fill="none" stroke="blue" points="456.5,-255 259.5,-255 259.5,-219 456.5,-219 456.5,-255"/>
<text text-anchor="middle" x="358" y="-233.3" font-family="Times,serif" font-size="14.00">[2] CheckHash .bob &#45;&gt; { .alice }</text>
</g>
<!-- 1&#45;&gt;2 -->
<g id="edge2" class="edge">
<title>1&#45;&gt;2</title>
<path fill="none" stroke="green" d="M314.42,-305.86C322.23,-300.89 329.97,-294.91 336,-288 341.85,-281.29 346.37,-272.78 349.74,-264.7"/>
<polygon fill="green" stroke="green" points="353.07,-265.78 353.31,-255.19 346.52,-263.32 353.07,-265.78"/>
<text text-anchor="middle" x="361" y="-276.8" font-family="Times,serif" font-size="14.00" fill="green">check</text>
</g>
<!-- 4 -->
<g id="node5" class="node">
<title>4</title>
<polygon fill="none" stroke="navy" points="241.5,-255 24.5,-255 24.5,-219 241.5,-219 241.5,-255"/>
<text text-anchor="middle" x="133" y="-233.3" font-family="Times,serif" font-size="14.00">[4] SendFinalHash .alice &#45;&gt; { .bob }</text>
</g>
<!-- 1&#45;&gt;4 -->
<g id="edge4" class="edge">
<title>1&#45;&gt;4</title>
<path fill="none" stroke="green" d="M249.45,-305.8C226.89,-292.66 195.63,-274.46 171.17,-260.22"/>
<polygon fill="green" stroke="green" points="172.9,-257.18 162.5,-255.18 169.38,-263.23 172.9,-257.18"/>
<text text-anchor="middle" x="226.5" y="-276.8" font-family="Times,serif" font-size="14.00" fill="green">final</text>
</g>
<!-- 2&#45;&gt;3 -->
<g id="edge6" class="edge">
<title>2&#45;&gt;3</title>
<path fill="none" stroke="blue" d="M350.01,-218.87C334.23,-185.04 298.98,-109.43 280.25,-69.26"/>
<polygon fill="blue" stroke="blue" points="283.37,-67.67 275.97,-60.09 277.02,-70.63 283.37,-67.67"/>
<text text-anchor="middle" x="341" y="-146.3" font-family="Times,serif" font-size="14.00" fill="blue">Failed</text>
</g>
<!-- 2&#45;&gt;1 -->
<g id="edge5" class="edge">
<title>2&#45;&gt;1</title>
<path fill="none" stroke="blue" d="M295.2,-255.22C287.62,-259.82 280.86,-265.64 276,-273 271.6,-279.66 270.74,-287.97 271.45,-295.89"/>
<polygon fill="blue" stroke="blue" points="268.02,-296.62 273.12,-305.91 274.93,-295.47 268.02,-296.62"/>
<text text-anchor="middle" x="304" y="-276.8" font-family="Times,serif" font-size="14.00" fill="blue">Successed</text>
</g>
<!-- 5 -->
<g id="node6" class="node">
<title>5</title>
<polygon fill="none" stroke="teal" points="287.5,-168 90.5,-168 90.5,-132 287.5,-132 287.5,-168"/>
<text text-anchor="middle" x="189" y="-146.3" font-family="Times,serif" font-size="14.00">[5] CheckHash .bob &#45;&gt; { .alice }</text>
</g>
<!-- 4&#45;&gt;5 -->
<g id="edge7" class="edge">
<title>4&#45;&gt;5</title>
<path fill="none" stroke="navy" d="M144.33,-218.8C152.3,-206.7 163.11,-190.3 172.09,-176.67"/>
<polygon fill="navy" stroke="navy" points="175.11,-178.45 177.68,-168.18 169.26,-174.6 175.11,-178.45"/>
<text text-anchor="middle" x="175" y="-189.8" font-family="Times,serif" font-size="14.00" fill="navy">cast</text>
</g>
<!-- 5&#45;&gt;3 -->
<g id="edge8" class="edge">
<title>5&#45;&gt;3</title>
<path fill="none" stroke="teal" d="M185.67,-131.85C184.57,-121.73 184.75,-108.99 190,-99 198.63,-82.6 214.47,-69.88 229.64,-60.74"/>
<polygon fill="teal" stroke="teal" points="231.45,-63.74 238.43,-55.77 228,-57.64 231.45,-63.74"/>
<text text-anchor="middle" x="218" y="-102.8" font-family="Times,serif" font-size="14.00" fill="teal">Successed</text>
</g>
<!-- 5&#45;&gt;3 -->
<g id="edge9" class="edge">
<title>5&#45;&gt;3</title>
<path fill="none" stroke="teal" d="M225.59,-131.95C233.17,-127.04 240.52,-121.06 246,-114 255.78,-101.41 261.24,-84.44 264.28,-70.25"/>
<polygon fill="teal" stroke="teal" points="267.79,-70.53 266.16,-60.06 260.9,-69.26 267.79,-70.53"/>
<text text-anchor="middle" x="271" y="-102.8" font-family="Times,serif" font-size="14.00" fill="teal">Failed</text>
</g>
</g>
</svg>
