<?xml version="1.0" encoding="UTF-8" standalone="no"?>
<!DOCTYPE svg PUBLIC "-//W3C//DTD SVG 1.1//EN"
 "http://www.w3.org/Graphics/SVG/1.1/DTD/svg11.dtd">
<!-- Generated by graphviz version 2.43.0 (0)
 -->
<!-- Title: fsm_state_graph Pages: 1 -->
<svg width="660pt" height="507pt"
 viewBox="0.00 0.00 660.00 507.00" xmlns="http://www.w3.org/2000/svg" xmlns:xlink="http://www.w3.org/1999/xlink">
<g id="graph0" class="graph" transform="scale(1 1) rotate(0) translate(4 503)">
<title>fsm_state_graph</title>
<polygon fill="white" stroke="transparent" points="-4,4 -4,-503 656,-503 656,4 -4,4"/>
<g id="clust1" class="cluster">
<title>cluster_transitions</title>
<polygon fill="none" stroke="black" points="8,-8 8,-491 592,-491 592,-8 8,-8"/>
<text text-anchor="middle" x="300" y="-475.8" font-family="Times,serif" font-size="14.00">State Transitions</text>
</g>
<g id="clust2" class="cluster">
<title>cluster_fsm_0</title>
<polygon fill="none" stroke="black" points="348,-16 348,-91 481,-91 481,-16 348,-16"/>
<text text-anchor="middle" x="414.5" y="-75.8" font-family="Times,serif" font-size="14.00">polysession_exit</text>
</g>
<g id="clust3" class="cluster">
<title>cluster_fsm_1</title>
<polygon fill="none" stroke="black" points="16,-124 16,-460 572,-460 572,-124 16,-124"/>
<text text-anchor="middle" x="294" y="-444.8" font-family="Times,serif" font-size="14.00">sendfile: { .alice, .bob }</text>
</g>
<!-- 3 -->
<g id="node1" class="node">
<title>3</title>
<polygon fill="none" stroke="brown" points="449,-60 379,-60 379,-24 449,-24 449,-60"/>
<text text-anchor="middle" x="414" y="-38.3" font-family="Times,serif" font-size="14.00">[3] Exit</text>
</g>
<!-- 0 -->
<g id="node2" class="node">
<title>0</title>
<polygon fill="none" stroke="red" points="523.5,-429 264.5,-429 264.5,-393 523.5,-393 523.5,-429"/>
<text text-anchor="middle" x="394" y="-407.3" font-family="Times,serif" font-size="14.00">[0] SendFileSize .alice &#45;&gt; { .bob }</text>
</g>
<!-- 1 -->
<g id="node3" class="node">
<title>1</title>
<polygon fill="none" stroke="green" points="495,-342 293,-342 293,-306 495,-306 495,-342"/>
<text text-anchor="middle" x="394" y="-320.3" font-family="Times,serif" font-size="14.00">[1] Send .alice &#45;&gt; { .bob }</text>
</g>
<!-- 0&#45;&gt;1 -->
<g id="edge1" class="edge">
<title>0&#45;&gt;1</title>
<path fill="none" stroke="red" d="M394,-392.8C394,-381.16 394,-365.55 394,-352.24"/>
<polygon fill="red" stroke="red" points="397.5,-352.18 394,-342.18 390.5,-352.18 397.5,-352.18"/>
<text text-anchor="middle" x="409" y="-363.8" font-family="Times,serif" font-size="14.00" fill="red">cast</text>
</g>
<!-- 1&#45;&gt;3 -->
<g id="edge5" class="edge">
<title>1&#45;&gt;3</title>
<path fill="none" stroke="green" d="M495.13,-307.3C525.18,-297.4 554.88,-281.27 573,-255 621.8,-184.25 514.71,-103.87 453.26,-65.58"/>
<polygon fill="green" stroke="green" points="454.9,-62.49 444.55,-60.25 451.25,-68.45 454.9,-62.49"/>
<text text-anchor="middle" x="617.5" y="-189.8" font-family="Times,serif" font-size="14.00" fill="green">final_zero</text>
</g>
<!-- 1&#45;&gt;1 -->
<g id="edge3" class="edge">
<title>1&#45;&gt;1</title>
<path fill="none" stroke="green" d="M495.14,-330.58C506.01,-329.31 513,-327.12 513,-324 513,-322 510.13,-320.39 505.21,-319.15"/>
<polygon fill="green" stroke="green" points="505.58,-315.66 495.14,-317.42 504.4,-322.56 505.58,-315.66"/>
<text text-anchor="middle" x="530" y="-320.3" font-family="Times,serif" font-size="14.00" fill="green">send</text>
</g>
<!-- 2 -->
<g id="node4" class="node">
<title>2</title>
<polygon fill="none" stroke="blue" points="564,-255 318,-255 318,-219 564,-219 564,-255"/>
<text text-anchor="middle" x="441" y="-233.3" font-family="Times,serif" font-size="14.00">[2] CheckHash .bob &#45;&gt; { .alice }</text>
</g>
<!-- 1&#45;&gt;2 -->
<g id="edge2" class="edge">
<title>1&#45;&gt;2</title>
<path fill="none" stroke="green" d="M421.21,-305.63C427,-300.64 432.44,-294.71 436,-288 439.65,-281.11 441.37,-272.94 442.05,-265.22"/>
<polygon fill="green" stroke="green" points="445.55,-265.26 442.42,-255.13 438.55,-265 445.55,-265.26"/>
<text text-anchor="middle" x="460.5" y="-276.8" font-family="Times,serif" font-size="14.00" fill="green">check</text>
</g>
<!-- 4 -->
<g id="node5" class="node">
<title>4</title>
<polygon fill="none" stroke="navy" points="299.5,-255 24.5,-255 24.5,-219 299.5,-219 299.5,-255"/>
<text text-anchor="middle" x="162" y="-233.3" font-family="Times,serif" font-size="14.00">[4] SendFinalHash .alice &#45;&gt; { .bob }</text>
</g>
<!-- 1&#45;&gt;4 -->
<g id="edge4" class="edge">
<title>1&#45;&gt;4</title>
<path fill="none" stroke="green" d="M347.33,-305.9C310.05,-292.24 257.67,-273.05 218.1,-258.56"/>
<polygon fill="green" stroke="green" points="219.19,-255.23 208.6,-255.07 216.78,-261.8 219.19,-255.23"/>
<text text-anchor="middle" x="306.5" y="-276.8" font-family="Times,serif" font-size="14.00" fill="green">final</text>
</g>
<!-- 2&#45;&gt;3 -->
<g id="edge7" class="edge">
<title>2&#45;&gt;3</title>
<path fill="none" stroke="blue" d="M440.19,-218.59C438.78,-192.46 435.31,-141.62 428,-99 426.35,-89.38 423.93,-78.98 421.57,-69.78"/>
<polygon fill="blue" stroke="blue" points="424.92,-68.78 418.96,-60.01 418.16,-70.58 424.92,-68.78"/>
<text text-anchor="middle" x="458" y="-146.3" font-family="Times,serif" font-size="14.00" fill="blue">Failed</text>
</g>
<!-- 2&#45;&gt;1 -->
<g id="edge6" class="edge">
<title>2&#45;&gt;1</title>
<path fill="none" stroke="blue" d="M376.29,-255.23C368.69,-259.82 361.91,-265.64 357,-273 351.27,-281.6 354.99,-290.76 361.9,-298.85"/>
<polygon fill="blue" stroke="blue" points="359.43,-301.33 368.97,-305.94 364.39,-296.39 359.43,-301.33"/>
<text text-anchor="middle" x="394.5" y="-276.8" font-family="Times,serif" font-size="14.00" fill="blue">Successed</text>
</g>
<!-- 5 -->
<g id="node6" class="node">
<title>5</title>
<polygon fill="none" stroke="teal" points="405,-168 159,-168 159,-132 405,-132 405,-168"/>
<text text-anchor="middle" x="282" y="-146.3" font-family="Times,serif" font-size="14.00">[5] CheckHash .bob &#45;&gt; { .alice }</text>
</g>
<!-- 4&#45;&gt;5 -->
<g id="edge8" class="edge">
<title>4&#45;&gt;5</title>
<path fill="none" stroke="navy" d="M186.28,-218.8C204.5,-205.9 229.62,-188.1 249.56,-173.98"/>
<polygon fill="navy" stroke="navy" points="251.62,-176.81 257.75,-168.18 247.57,-171.1 251.62,-176.81"/>
<text text-anchor="middle" x="245" y="-189.8" font-family="Times,serif" font-size="14.00" fill="navy">cast</text>
</g>
<!-- 5&#45;&gt;3 -->
<g id="edge9" class="edge">
<title>5&#45;&gt;3</title>
<path fill="none" stroke="teal" d="M281.26,-131.64C281.68,-121.2 283.85,-108.19 291,-99 310.03,-74.53 342.18,-60.4 368.84,-52.46"/>
<polygon fill="teal" stroke="teal" points="370.04,-55.75 378.74,-49.71 368.17,-49.01 370.04,-55.75"/>
<text text-anchor="middle" x="328.5" y="-102.8" font-family="Times,serif" font-size="14.00" fill="teal">Successed</text>
</g>
<!-- 5&#45;&gt;3 -->
<g id="edge10" class="edge">
<title>5&#45;&gt;3</title>
<path fill="none" stroke="teal" d="M336.16,-131.91C346.7,-127.12 357.19,-121.2 366,-114 380.83,-101.87 392.89,-83.97 401.21,-69.18"/>
<polygon fill="teal" stroke="teal" points="404.49,-70.47 406.13,-60.01 398.32,-67.17 404.49,-70.47"/>
<text text-anchor="middle" x="402" y="-102.8" font-family="Times,serif" font-size="14.00" fill="teal">Failed</text>
</g>
</g>
</svg>
